<svg width="165" height="102" viewBox="0 0 165 102" fill="none" xmlns="http://www.w3.org/2000/svg">
<g clip-path="url(#clip0_2454_928)">
<path d="M2.76403 8.69281C3.43085 8.6889 4.63053 8.57921 6.35286 8.37406C8.07513 8.15865 9.92033 7.91173 11.8781 7.61282C13.8358 7.3139 15.0352 7.15289 15.4658 7.1093C16.8393 6.89594 18.4799 6.75287 20.3877 6.68009L20.993 6.67654C22.2343 6.66926 23.1594 6.98206 23.7684 7.61495C24.408 8.21686 24.7303 8.93355 24.7352 9.77529C24.7391 10.4425 24.5272 11.0494 24.0892 11.5858C23.6615 12.1221 23.0685 12.4643 22.3409 12.6021C22.1769 12.6338 21.3976 12.7 20.0029 12.7903C18.6082 12.8806 17.2855 13.0013 16.0039 13.1422C14.7326 13.2831 14.0255 13.4207 13.8929 13.555C13.6278 13.8234 13.6408 14.2956 13.9525 14.961C14.1612 15.5654 14.3088 17.9975 14.3953 22.2469C14.4203 26.5069 14.76 30.2107 15.4146 33.3584C15.4878 33.594 15.5203 33.8916 15.5224 34.2611C15.5252 34.7333 15.2614 35.2378 14.7311 35.7748C13.9964 36.4463 13.2597 36.7894 12.5211 36.7937C11.7209 36.7984 10.9391 36.4335 10.2064 35.6986C9.73171 35.2292 9.42112 34.7486 9.26429 34.2465C9.10745 33.7444 8.95823 32.7906 8.81662 31.385C8.64267 29.7128 8.53668 27.3831 8.51916 24.396L8.50646 22.2301C8.49033 19.479 8.36616 17.5498 8.12377 16.4529L7.66059 14.4435L4.79838 14.4603C3.52629 14.4678 2.67451 14.4215 2.26356 14.3212C1.84235 14.221 1.43043 13.9565 1.02781 13.5278C0.388455 12.9669 0.0667609 12.3426 0.0628483 11.6754C0.0589356 11.0081 0.352287 10.2981 0.933306 9.65823C1.51433 9.01836 2.12799 8.69654 2.76403 8.69281Z" fill="#C36E9A"/>
<path d="M41.7166 8.46445C42.5121 7.65908 43.3202 7.24373 44.1204 7.23903C46.0593 7.22766 47.8892 9.62931 49.5898 14.4544C50.0693 15.7553 50.4434 16.5743 50.7121 16.9115C50.8463 17.0442 51.4925 18.765 52.6507 22.0842C53.6424 24.9938 54.6208 27.3901 55.6064 29.2629C56.4878 30.8694 56.9266 32.2116 56.9328 33.2792C56.9395 34.4186 56.411 35.2635 55.337 35.8036C54.8051 36.0736 54.3545 36.2097 53.9851 36.2119C52.8464 36.2186 51.8042 35.1879 50.8482 33.1096C50.1001 31.5023 49.5922 30.6224 49.3245 30.4495C49.2525 30.4191 49.0882 30.3996 48.8215 30.4011C48.288 30.4043 47.5704 30.4906 46.6584 30.6704C45.6542 30.8816 43.9833 31.107 41.6354 31.3569L38.826 31.63L37.5925 34.7066C36.2381 38.174 34.8222 39.9069 33.3449 39.9156C32.6781 39.9195 32.0404 39.6358 31.4318 39.0748C30.8232 38.5137 30.5222 37.9201 30.5188 37.3247C30.5148 36.6575 31.2612 34.4666 32.7476 30.7725C34.1322 27.2126 35.2734 24.116 36.1608 21.4931C36.7146 19.7139 37.2597 18.1914 37.7653 16.9361C38.2811 15.6807 38.7659 14.3741 39.2299 13.0266C40.0175 10.8765 40.8499 9.36263 41.7168 8.48498L41.7166 8.46445ZM45.757 20.4103C44.9458 18.5365 44.3658 17.6057 44.0273 17.6077C43.8631 17.6086 43.7307 17.7634 43.6298 18.0617C43.5995 18.1337 43.5287 18.3189 43.428 18.6377C43.3273 18.9566 43.1861 19.368 43.0044 19.8721C42.8227 20.3762 42.651 20.8494 42.4894 21.2815C41.8942 22.9993 41.603 24.0686 41.6055 24.51C41.6083 24.9822 41.979 25.2161 42.7177 25.2118L43.0152 25.2101C45.5895 25.0923 46.8795 24.6331 46.8748 23.8324C46.8718 23.3294 46.4958 22.1921 45.7468 20.4206L45.757 20.4103Z" fill="#C36E9A"/>
<path d="M71.5623 14.0176C72.3283 13.4382 73.3526 13.155 74.6246 13.1476C75.7634 13.1409 76.8317 13.3707 77.8193 13.8372C78.8069 14.3036 79.4568 14.9157 79.7691 15.6838C80.0088 16.3188 80.1242 16.7596 80.1255 16.9854C80.1283 17.4576 79.8136 18.024 79.1815 18.7053C78.6108 19.3451 77.7304 19.6685 76.5198 19.6756C75.7504 19.6801 75.2686 19.7342 75.0845 19.838C74.9004 19.9417 74.7787 20.1785 74.7091 20.5485L74.7132 21.2568C74.7213 22.6323 75.0494 24.355 75.6977 26.4351C76.2414 28.177 76.5194 30.1053 76.5318 32.2096C76.5441 34.314 76.2858 35.7526 75.7584 36.7925C74.3991 39.4182 72.2832 40.7343 69.4005 40.7512C68.7952 40.7548 68.3437 40.7369 68.046 40.7078C65.1923 40.4269 63.5155 39.6463 63.0054 38.3763C62.7657 37.7413 62.6502 37.2903 62.6486 37.0234C62.6461 36.5923 62.9401 35.9951 63.5411 35.2628C64.01 34.757 64.4288 34.4466 64.7974 34.3212C65.1661 34.2062 65.9864 34.1398 67.2585 34.1323L70.0694 34.1158L70.1626 32.5036L70.1605 32.1546C70.154 31.046 69.9098 29.641 69.4279 27.9295C68.8102 25.8185 68.5001 23.6748 68.4874 21.4986L68.4821 20.5953C68.4756 19.4866 68.5325 18.6959 68.6732 18.2023C68.8037 17.719 69.067 17.1324 69.4632 16.4628C70.1644 15.3192 70.8573 14.5144 71.5624 14.0381L71.5623 14.0176Z" fill="#C36E9A"/>
<path d="M109.804 11.5349C110.202 11.2349 110.807 11.0774 111.607 11.0727C112.315 11.0685 112.849 11.1886 113.22 11.4122C114.094 11.8383 114.529 12.5953 114.536 13.6732C114.54 14.4739 114.312 15.6865 113.849 17.3009C113.648 18.0104 113.027 20.488 111.985 24.7543C111.465 27.0671 110.8 29.1241 110.01 30.9046C109.22 32.6852 108.447 33.8702 107.722 34.4391C107.089 34.9766 106.147 35.249 104.916 35.2562C102.372 35.2712 99.9974 34.4639 97.8129 32.8342C96.9064 32.2031 95.8636 31.0697 94.6742 29.4342C93.4548 27.9323 92.7835 27.1766 92.6502 27.1774C92.5476 27.178 92.3398 28.4829 92.0166 31.1025C91.8619 32.7151 91.694 33.8248 91.5335 34.4519C91.373 35.0688 91.1195 35.5733 90.7831 35.9448C90.1816 36.5848 89.4448 36.9073 88.5728 36.9124C87.8034 36.9169 87.1146 36.6644 86.5064 36.1649C85.9291 35.6961 85.6477 34.9484 85.6416 33.9116C85.6408 33.7781 85.6395 33.542 85.658 33.2032C85.6765 32.8643 85.675 32.5974 85.6738 32.4024C85.7224 30.1847 85.9446 27.8532 86.3407 25.4077C86.7264 22.9622 87.1375 21.3276 87.5739 20.5244C88.8314 18.0327 90.2809 16.7821 91.9223 16.7725C92.7635 16.7676 93.4213 16.969 93.9162 17.387C94.4008 17.805 95.1041 18.7761 96.016 20.3209C99.3011 25.9373 101.913 28.7348 103.852 28.7234C104.385 28.7203 105.493 25.1619 107.154 18.0382C107.746 15.6532 108.178 14.0903 108.46 13.3495C108.743 12.6087 109.181 12.0005 109.784 11.535L109.804 11.5349Z" fill="#C36E9A"/>
<path d="M120.947 1.25539C121.548 0.584609 122.213 0.241951 122.952 0.237619C123.69 0.233288 124.462 0.629115 125.175 1.43591C125.743 2.09983 126.033 2.67299 126.036 3.14519C126.037 3.38128 125.988 3.7306 125.888 4.20339C125.502 6.61804 124.566 7.83486 123.099 7.84346C122.965 7.84424 122.699 7.81501 122.298 7.7455C120.788 7.41559 120.022 6.17797 120.009 4.03256C120.002 2.92393 120.315 1.99821 120.947 1.25539ZM122.535 14.9299C123.198 14.3512 123.853 14.0702 124.489 14.0664C125.126 14.0627 125.763 14.3772 126.403 15.0099C126.837 15.4385 127.116 15.9091 127.212 16.391C127.317 16.8729 127.375 18.0428 127.386 19.8905C127.398 21.9332 127.598 24.5806 127.986 27.8324C128.201 29.4121 128.3 30.5612 128.304 31.3003C128.308 31.9675 128.239 32.4196 128.107 32.6565C127.509 33.7995 126.64 34.3794 125.501 34.3861C124.834 34.39 124.217 34.1575 123.661 33.6886C123.104 33.2196 122.721 32.5854 122.521 31.7859C122.28 30.8531 122.012 28.9043 121.707 25.9599C121.403 23.0155 121.245 20.6964 121.236 19.0232C121.235 18.8898 121.234 18.705 121.253 18.4688C121.272 18.2325 121.271 18.0786 121.271 18.017C121.337 17.144 121.447 16.5069 121.608 16.1056C121.77 15.7043 122.076 15.3124 122.504 14.9404L122.535 14.9299Z" fill="#C36E9A"/>
<path d="M153.931 10.1675C154.535 9.95863 155.14 9.8627 155.735 9.85921C157.407 9.8494 158.889 10.6825 160.171 12.3482C161.215 13.7485 162.161 17.5001 163.007 23.6031C163.425 26.6187 163.643 28.7834 163.65 30.0871C163.659 31.5652 163.347 32.6039 162.714 33.2132C162.082 33.8534 161.366 34.1758 160.555 34.1806C159.745 34.1853 159.076 33.8916 158.539 33.2891C158.168 32.9525 157.909 32.4407 157.751 31.7333C157.593 31.0259 157.41 29.5591 157.201 27.3121C156.637 22.0185 156.043 18.7678 155.431 17.5601C155.265 17.2223 155.131 17.0588 155.028 17.0594C154.925 17.06 154.741 17.1946 154.476 17.463C154.079 17.8657 153.144 19.5137 151.694 22.4068C150.701 24.4246 150 25.7016 149.603 26.2378C149.206 26.7739 148.624 27.2495 147.847 27.6544C147.009 28.1316 146.395 28.3713 145.994 28.3736C145.758 28.375 145.358 28.2644 144.782 28.0317C143.877 27.6366 142.826 26.9242 141.65 25.884C140.475 24.8541 139.815 24.3345 139.682 24.3352C139.518 24.3362 139.428 24.7884 139.433 25.6917C139.443 27.406 139.669 29.1293 140.12 30.8718C140.425 32.1429 140.584 32.9324 140.586 33.2301C140.588 33.5996 140.385 34.0525 139.988 34.5886C139.225 35.5991 138.407 36.1069 137.535 36.112C137.032 36.115 136.559 35.9535 136.127 35.6173C135.117 34.8533 134.444 33.882 134.099 32.7138C133.753 31.5456 133.557 29.586 133.51 26.8351C133.496 24.392 133.538 22.8314 133.637 22.1534C133.735 21.4855 134.079 20.5288 134.677 19.2832C135.831 16.7614 137.117 15.5015 138.522 15.4932C139.794 15.4858 141.256 16.3805 142.908 18.1878C144.425 19.688 145.25 20.4428 145.384 20.442C145.65 20.4404 146.219 19.5132 147.081 17.6604C147.841 16.0442 148.919 14.4776 150.315 12.9604C151.712 11.4431 152.917 10.5122 153.921 10.1675L153.931 10.1675Z" fill="#C36E9A"/>
<path d="M11.7775 67.4405C13.4876 66.8967 15.507 66.618 17.8563 66.6042C19.3335 66.5955 20.473 66.712 21.2745 66.9332C22.0451 67.1339 22.8585 67.6322 23.6943 68.4485C24.5403 69.2648 25.2641 70.2255 25.8758 71.3306C27.1627 73.8381 27.9416 75.4554 28.2125 76.1724C28.4835 76.8894 28.6217 77.7201 28.6273 78.6645C28.6403 80.8818 28.008 83.2773 26.7305 85.8717C25.4531 88.4661 23.8648 90.5285 21.9657 92.0897C19.4645 94.1883 16.8444 95.2405 14.095 95.2566C13.9924 95.2572 13.8693 95.2579 13.7153 95.2383C13.5613 95.2186 13.4587 95.2192 13.3869 95.2197C11.8471 95.0645 10.851 94.8958 10.4192 94.7341C9.97709 94.5724 9.61575 94.1844 9.30443 93.5806C9.03458 93.0484 8.63833 90.2072 8.12601 85.0672C7.61369 79.9272 7.34538 76.1614 7.33142 73.7799L7.32877 73.3282C7.39077 71.6546 7.73216 70.3899 8.36327 69.5444C8.99438 68.699 10.1291 68.0045 11.7674 67.4611L11.7775 67.4405ZM19.6995 73.0298C19.2661 72.6012 18.3415 72.3808 16.9361 72.389C15.8589 72.3953 14.9877 72.5339 14.3224 72.8047C14.0255 72.9091 13.8106 72.9925 13.6982 73.065C13.5857 73.1375 13.484 73.2818 13.4033 73.5184C13.3226 73.755 13.2836 74.1042 13.2864 74.5764C13.2886 74.946 13.4112 76.6185 13.6647 79.6043C13.8818 81.6458 14.0901 83.9235 14.31 86.4373C14.4187 87.4735 14.5252 88.1401 14.6192 88.427C14.7235 88.7138 14.9398 88.8562 15.2783 88.8543C16.6222 88.8464 17.9921 88.0274 19.388 86.387C20.784 84.7569 21.778 82.8109 22.37 80.5592C22.5711 79.8498 22.6603 79.3154 22.6581 78.9459C22.6553 78.4737 22.301 77.5416 21.5849 76.1394C20.8061 74.5323 20.1742 73.4992 19.7098 73.0297L19.6995 73.0298Z" fill="#C36E9A"/>
<path d="M41.7697 64.7496C43.5115 64.3698 45.0493 64.176 46.3932 64.1681C47.7371 64.1603 48.6408 64.3192 49.1147 64.6552C49.8565 65.1846 50.23 65.9113 50.2353 66.8146C50.2385 67.3484 50.1183 67.8419 49.8951 68.2743C49.5295 68.9129 49.1524 69.336 48.7432 69.5335C48.3443 69.7411 47.4733 69.9105 46.1301 70.0518C44.2544 70.3297 42.9117 70.5429 42.1123 70.681L40.1039 71.0931L40.2251 74.2644L40.2947 77.3847L42.7565 77.319C44.4689 77.1755 45.5344 76.9331 45.9736 76.5918C46.4435 76.2503 47.0068 76.0827 47.6838 76.0788C48.484 76.0741 49.2242 76.3264 49.8734 76.8256C50.5227 77.3248 50.8648 77.9387 50.8692 78.6778C50.8731 79.345 50.5491 80.086 49.8973 80.9008C49.2455 81.7156 48.5201 82.2331 47.7213 82.4739C47.1889 82.6413 45.9182 82.8951 43.9299 83.225C41.9415 83.5549 40.6601 83.7266 40.0856 83.73C39.9215 83.731 39.831 84.0497 39.8348 84.6862C39.8444 86.3286 40.1511 87.8871 40.765 89.3618C41.0356 90.0274 41.2845 90.4777 41.5012 90.692C41.7179 90.9063 42.0468 91.0172 42.488 91.0147C43.4933 91.0088 44.8253 90.7135 46.4839 90.1392C48.1425 89.5649 49.237 89.0041 49.7672 88.4569C50.4712 87.7856 51.2488 87.4422 52.1208 87.4371C52.9928 87.432 53.7129 87.7665 54.2913 88.4304C54.8698 89.0943 55.1504 89.7188 55.1537 90.2834C55.1563 90.7145 54.9756 91.3931 54.6115 92.2986C54.2779 93.1423 53.5946 93.8239 52.5409 94.3433C51.4873 94.873 49.675 95.4791 47.0937 96.1614C44.8196 96.7496 43.0465 97.0372 41.7744 97.0447C39.5995 97.0574 37.85 96.113 36.5256 94.2114C35.9464 93.4141 35.395 92.1033 34.8407 90.2999C34.2967 88.4963 33.9802 87.02 33.912 85.8809L33.9055 84.7723C33.8904 82.1957 33.9828 78.7152 34.1727 74.3615C34.3626 69.9976 34.523 67.6048 34.6537 67.1626C35.1185 65.9486 36.2333 65.3466 38.008 65.3362C38.9823 65.2689 40.2327 65.0666 41.7698 64.7598L41.7697 64.7496Z" fill="#C36E9A"/>
<path d="M69.6798 74.3894C70.4458 73.81 71.4701 73.5269 72.7422 73.5194C73.8809 73.5127 74.9492 73.7426 75.9368 74.209C76.9244 74.6754 77.5743 75.2875 77.8866 76.0556C78.1263 76.6907 78.2417 77.1314 78.2431 77.3572C78.2458 77.8294 77.9311 78.3959 77.299 79.0771C76.7283 79.7169 75.8479 80.0403 74.6374 80.0474C73.868 80.0519 73.3861 80.1061 73.202 80.2098C73.018 80.3135 72.8963 80.5503 72.8266 80.9203L72.8308 81.6286C72.8388 83.0041 73.167 84.7268 73.8152 86.8069C74.3589 88.5488 74.637 90.4771 74.6493 92.5814C74.6616 94.6858 74.4033 96.1245 73.876 97.1644C72.5166 99.79 70.4007 101.106 67.518 101.123C66.9127 101.127 66.4612 101.109 66.1635 101.08C63.3098 100.799 61.633 100.018 61.1229 98.7482C60.8832 98.1131 60.7677 97.6621 60.7661 97.3952C60.7636 96.9641 61.0576 96.367 61.6586 95.6346C62.1276 95.1288 62.5464 94.8184 62.915 94.6931C63.2836 94.578 64.104 94.5116 65.3761 94.5041L68.187 94.4876L68.2801 92.8754L68.2781 92.5264C68.2716 91.4178 68.0274 90.0128 67.5454 88.3013C66.9277 86.1903 66.6176 84.0466 66.6049 81.8704L66.5996 80.9671C66.5931 79.8585 66.65 79.0677 66.7907 78.5741C66.9213 78.0909 67.1846 77.5042 67.5808 76.8346C68.2819 75.691 68.9748 74.8863 69.6799 74.4099L69.6798 74.3894Z" fill="#C36E9A"/>
<path d="M84.6358 61.8292C85.2371 61.1585 85.902 60.8158 86.6406 60.8115C87.3792 60.8071 88.151 61.203 88.8636 62.0098C89.4318 62.6737 89.7224 63.2468 89.7251 63.719C89.7265 63.9551 89.6773 64.3045 89.5775 64.7772C89.1915 67.1919 88.2548 68.4087 86.7878 68.4173C86.6544 68.4181 86.3875 68.3889 85.987 68.3194C84.477 67.9894 83.7106 66.7518 83.698 64.6064C83.6915 63.4978 84.0041 62.5721 84.6358 61.8292ZM86.2241 75.5038C86.8875 74.925 87.5425 74.644 88.1785 74.6403C88.8145 74.6366 89.4525 74.951 90.0922 75.5837C90.5256 76.0124 90.8054 76.4829 90.9005 76.9648C91.006 77.4467 91.0641 78.6166 91.0749 80.4643C91.0869 82.5071 91.2871 85.1544 91.6755 88.4063C91.89 89.9859 91.989 91.1351 91.9934 91.8741C91.9973 92.5414 91.9281 92.9935 91.7961 93.2303C91.1975 94.3733 90.3289 94.9533 89.1902 94.96C88.5234 94.9639 87.9065 94.7314 87.3497 94.2624C86.793 93.7935 86.4097 93.1593 86.2101 92.3597C85.9686 91.427 85.7007 89.4781 85.3962 86.5337C85.0917 83.5893 84.9345 81.2703 84.9246 79.597C84.9239 79.4636 84.9228 79.2788 84.9419 79.0426C84.961 78.8064 84.9601 78.6524 84.9598 78.5908C85.0265 77.7179 85.1356 77.0808 85.2974 76.6795C85.4592 76.2782 85.7646 75.8863 86.1933 75.5142L86.2241 75.5038Z" fill="#C36E9A"/>
<path d="M110.973 62.2291C112.039 62.0586 112.911 61.9611 113.588 61.9571C116.399 61.9406 117.913 62.9172 118.129 64.8972L118.132 65.2975C118.136 66.0674 117.924 66.6948 117.486 67.1594C117.15 67.5617 116.782 67.8307 116.383 67.946C115.983 68.0715 115.163 68.1277 113.922 68.1349C112.68 68.173 111.799 68.2603 111.256 68.3764C110.723 68.5027 110.068 68.7735 109.301 69.2194C107.563 70.2664 106.136 71.907 105.011 74.1206C103.885 76.3446 103.323 78.5447 103.336 80.7209C103.344 82.0964 103.608 83.3062 104.117 84.34C104.625 85.343 105.431 86.293 106.544 87.1898C107.657 88.0867 108.563 88.533 109.271 88.5289C109.301 88.5287 109.342 88.5285 109.394 88.5076C109.445 88.4868 109.486 88.4866 109.517 88.4864C110.592 88.2132 111.646 87.7348 112.699 87.0613C113.752 86.3879 114.578 85.644 115.168 84.8295C115.932 83.7882 116.318 83.0777 116.315 82.7081C116.312 82.1743 115.326 81.9132 113.346 81.9248C112.105 81.9321 111.294 81.8855 110.903 81.7852C110.513 81.6848 110.152 81.4405 109.822 81.0421C109.346 80.4085 109.106 79.7734 109.103 79.137C109.098 78.3979 109.361 77.7599 109.892 77.223C110.29 76.8511 111.077 76.4872 112.245 76.1313C113.412 75.7754 114.417 75.595 115.258 75.5901C116.838 75.5808 118.277 76.0857 119.586 77.0943C120.895 78.1131 121.743 79.3708 122.122 80.8776C122.258 81.4106 122.333 82.0056 122.337 82.642C122.346 84.151 121.587 86.0032 120.061 88.1884C118.728 90.003 117.003 91.5016 114.886 92.674C112.769 93.8464 110.68 94.4335 108.639 94.4455C107.233 94.4537 105.959 94.0711 104.815 93.3079C99.841 90.0213 97.2921 85.7351 97.1997 80.4797C97.1937 79.4429 97.5121 77.7678 98.1552 75.4645C98.7983 73.1613 99.4144 71.505 100.014 70.4954C100.674 69.3213 101.753 68.001 103.233 66.5552C104.712 65.1093 105.988 64.1061 107.062 63.566C108.228 62.9535 109.539 62.5146 110.973 62.2393L110.973 62.2291Z" fill="#C36E9A"/>
<path d="M151.901 71.6489C152.299 71.3489 152.904 71.1914 153.704 71.1867C154.412 71.1825 154.946 71.3026 155.317 71.5262C156.191 71.9523 156.626 72.7094 156.633 73.7872C156.637 74.5879 156.409 75.8005 155.946 77.4149C155.745 78.1244 155.124 80.602 154.082 84.8683C153.562 87.1811 152.897 89.2381 152.107 91.0186C151.317 92.7992 150.544 93.9842 149.819 94.5531C149.186 95.0906 148.244 95.363 147.013 95.3703C144.469 95.3852 142.094 94.5779 139.91 92.9482C139.003 92.3171 137.961 91.1837 136.771 89.5482C135.552 88.0463 134.88 87.2906 134.747 87.2914C134.645 87.292 134.437 88.597 134.114 91.2165C133.959 92.8291 133.791 93.9388 133.63 94.5659C133.47 95.1828 133.216 95.6873 132.88 96.0588C132.279 96.6988 131.542 97.0213 130.67 97.0264C129.9 97.031 129.212 96.7784 128.603 96.2789C128.026 95.8101 127.745 95.0624 127.739 94.0256C127.738 93.8921 127.736 93.656 127.755 93.3172C127.773 92.9783 127.772 92.7114 127.771 92.5164C127.819 90.2988 128.042 87.9672 128.438 85.5217C128.823 83.0763 129.234 81.4416 129.671 80.6384C130.928 78.1468 132.378 76.8961 134.019 76.8865C134.86 76.8816 135.518 77.083 136.013 77.501C136.498 77.9191 137.201 78.8902 138.113 80.4349C141.398 86.0514 144.01 88.8488 145.949 88.8374C146.482 88.8343 147.59 85.2759 149.251 78.1522C149.843 75.7672 150.275 74.2043 150.557 73.4635C150.84 72.7228 151.278 72.1145 151.88 71.6491L151.901 71.6489Z" fill="#C36E9A"/>
</g>
<defs>
<clipPath id="clip0_2454_928">
<rect width="163.477" height="100.548" fill="white" transform="translate(0 0.958618) rotate(-0.335977)"/>
</clipPath>
</defs>
</svg>
