<svg width="210" height="81" viewBox="0 0 210 81" fill="none" xmlns="http://www.w3.org/2000/svg">
<path d="M53.2233 15.687C69.0427 8.86565 86.3893 4.61024 104.046 3.04492C121.72 1.47726 139.712 2.52002 156.934 6.24819C165.42 8.08533 173.781 10.5341 181.697 13.7163C188.681 16.5212 195.487 20.1134 200.562 25.1187C205.6 30.0865 208.161 36.5305 206.424 43.0261C204.522 50.1403 198.633 55.9939 191.569 59.954C183.872 64.268 174.956 66.7144 166.168 68.9054C156.806 71.2393 147.286 73.1186 137.672 74.5434C118.38 77.4022 98.6973 78.3887 79.1391 77.5404C69.3254 77.1139 59.5394 76.2258 49.8477 74.8574C40.9624 73.6014 31.9164 72.1649 23.3526 69.7513C16.6152 67.8533 9.46765 64.957 5.56544 59.6939C3.5506 56.9757 2.58614 53.8193 2.80232 50.6184C3.01849 47.4174 4.48735 44.1837 6.46894 41.3811C10.8229 35.2253 17.5797 30.5598 24.8215 26.9793C32.0633 23.3987 40.3721 20.4017 48.7252 18.3864C65.4648 14.3466 83.3906 13.7303 100.432 16.793C104.573 17.5382 108.655 18.4989 112.657 19.6635C114.348 20.1556 115.074 17.892 113.394 17.4046C96.2612 12.4181 77.7174 11.3214 59.8748 13.8568C51.0117 15.1175 42.362 17.3085 34.1308 20.3548C26.0548 23.3425 18.1451 27.0918 11.7264 32.2587C5.70956 37.1023 0.454893 43.5159 0.0253185 50.7449C-0.382085 57.599 4.16863 63.5065 10.6843 67.2604C17.2 71.0144 25.4644 72.9124 33.2661 74.445C43.0798 76.3735 53.0266 77.8052 63.037 78.766C83.191 80.6992 103.608 80.6453 123.748 78.6207C133.753 77.6154 143.689 76.1438 153.494 74.1778C163.006 72.2727 172.604 70.0747 181.655 66.9206C190.194 63.9447 198.264 59.7947 203.763 53.3811C208.81 47.4948 211.213 39.9728 208.763 32.8656C206.532 26.3911 200.886 21.2898 194.581 17.3905C187.702 13.1398 179.784 10.1943 171.827 7.71509C154.556 2.33256 136.051 -0.221622 117.654 0.01505C99.3679 0.249379 81.0847 3.22769 64.0929 8.9664C59.9219 10.3747 55.8257 11.9424 51.8237 13.667C50.2357 14.3513 51.6353 16.3759 53.2233 15.6893V15.687Z" fill="#C36E9A"/>
</svg>
