<svg width="1184" height="938" viewBox="0 0 1184 938" fill="none" xmlns="http://www.w3.org/2000/svg">
<g clip-path="url(#clip0_3085_2879)">
<path d="M935.291 868.797C959.253 875.531 984.611 880.219 1008.79 877.094C1029.3 874.441 1048.78 865.293 1059.41 850.289C1062.02 846.606 1064.05 842.571 1065.37 838.331C1066.51 834.649 1066.44 830.456 1064.82 826.643C1063.38 823.232 1060.44 820.06 1056.04 819.652C1051.19 819.202 1047.59 822.482 1046.73 826.252C1045.7 830.784 1048.57 835.354 1051.95 839.034C1055.59 842.987 1060 846.481 1064.64 849.544C1074.32 855.924 1085.57 860.329 1097.01 863.061C1122.17 869.077 1147.68 866.732 1172.11 863.544C1175.16 863.145 1178.2 862.733 1181.24 862.322C1182.94 862.091 1182.14 859.787 1180.43 860.02C1156.94 863.207 1132.78 866.516 1108.31 862.901C1097.39 861.287 1086.46 858.248 1076.49 853.51C1071.51 851.145 1066.75 848.361 1062.42 845.121C1058.26 842 1054 838.407 1051.29 834.259C1048.98 830.714 1048.21 826.239 1051.51 823.401C1054.19 821.097 1058.49 821.731 1060.77 824.667C1063.05 827.602 1063.74 831.723 1063.28 835.088C1062.74 839.025 1060.82 842.885 1058.76 846.284C1049.89 860.952 1032.28 870.434 1013.39 873.947C991.05 878.102 966.916 874.597 944.271 868.821C941.475 868.109 938.69 867.356 935.913 866.577C934.197 866.094 933.567 868.317 935.287 868.801L935.291 868.797Z" fill="#C36E9A"/>
<path d="M423.718 852.466C445.09 860.075 466.444 871.577 489.639 871.225C507.027 870.96 525.375 862.175 526.755 845.796C527.419 837.906 523.86 829.446 516.288 824.244C515.72 823.855 514.844 824.276 514.898 824.863C515.928 836.16 521.123 847.298 529.551 856.411C538.713 866.317 551.69 873.365 565.522 876.258C578.934 879.063 594.755 878.59 604.53 870.233C609.326 866.132 612.428 860.733 614.671 855.17C616.914 849.608 618.341 843.783 619.034 837.832C620.626 824.126 618.045 809.863 611.617 796.72C611.279 796.03 610.101 796.197 609.918 796.812C605.048 813.259 614.074 831.861 629.484 843.245C647.4 856.478 671.377 860.274 692.897 857.545C705.195 855.987 716.903 852.461 727.931 847.959C728.982 847.531 728.034 846.072 726.988 846.499C708.228 854.157 686.961 859.013 665.311 855.777C644.628 852.685 624.608 841.98 615.321 824.602C610.69 815.937 609.093 806.201 611.715 797.342L610.016 797.434C615.475 808.602 618.023 820.621 617.584 832.37C617.365 838.239 616.391 844.027 614.665 849.6C612.94 855.173 610.582 860.603 606.847 865.242C603.111 869.881 597.666 873.359 591.129 874.906C584.745 876.416 577.807 876.456 571.085 875.587C557.341 873.81 543.956 867.751 534.126 858.63C524.139 849.364 517.871 837.228 516.751 824.967L515.361 825.587C521.961 830.122 525.118 837.438 524.967 844.332C524.805 851.686 520.664 858.026 514.391 862.4C499.355 872.886 477.946 870.255 459.935 864.452C447.778 860.535 436.193 855.207 424.179 850.931C423.042 850.526 422.585 852.064 423.716 852.467L423.718 852.466Z" fill="#C36E9A"/>
<path d="M30.9776 878.047C26.8856 873.998 26.9375 867.057 31.4766 862.655C36.3365 857.94 44.3594 856.956 50.0855 859.922C52.9092 861.384 55.4434 863.34 58.7749 864.033C61.829 864.667 65.1474 864.078 67.8321 862.405C73.5917 858.82 76.1668 852.289 76.6949 846.687C77.2229 841.086 76.8344 835.214 80.2162 830.235C82.7244 826.544 87.1175 824.433 91.9023 824.344C96.6386 824.256 101.183 825.622 105.443 826.982C110.144 828.48 114.728 830.229 119.579 831.427C123.841 832.479 128.549 833.15 133.091 832.057C137.612 830.969 141.467 828.107 143.576 824.509C148.167 816.678 146.046 807.889 147.943 799.718C148.784 796.096 150.633 792.577 154.646 790.624C159.933 788.05 166.015 789.597 171.176 790.761C176.698 792.006 182.86 793.498 188.701 791.512C194.801 789.438 198.332 784.429 199.726 779.259C201.371 773.169 200.151 767.378 199.257 761.45C198.315 755.21 198.104 748.583 202.852 742.954C206.891 738.165 213.401 735.086 219.865 733.663C227.755 731.925 235.878 732.761 243.426 734.236C247.327 734.998 251.155 735.949 254.976 736.905C256.638 737.32 257.497 735.049 255.845 734.637C241.369 731.015 224.958 727.339 210.11 734.609C204 737.6 198.931 742.311 196.999 748.079C194.748 754.795 196.587 761.545 197.505 768.096C198.26 773.475 198.043 779.559 194.422 784.543C192.805 786.767 190.442 788.593 187.543 789.461C184.643 790.328 181.696 790.253 178.855 789.849C172.932 789.008 167.317 786.841 161.154 786.902C155.966 786.954 150.875 789.118 148.005 793.064C145.433 796.602 144.817 800.841 144.473 804.776C144.09 809.132 144.143 813.508 143.258 817.859C142.485 821.668 140.713 825.57 136.821 828.013C133.072 830.366 128.55 830.602 124.341 829.954C114.421 828.426 105.961 823.406 95.9113 822.228C91.4814 821.71 86.7675 822.124 82.8473 824.523C77.2331 827.961 75.3508 833.46 74.647 838.852C74.2714 841.726 74.2017 844.6 73.8746 847.474C73.5253 850.553 72.4001 853.703 70.5022 856.453C68.8583 858.841 66.4358 861.165 63.1811 861.804C59.6084 862.506 56.6156 860.759 53.9515 859.204C51.1499 857.569 48.3593 856.203 44.8228 855.908C41.2864 855.614 37.7605 856.309 34.5874 857.744C28.1645 860.65 24.7039 866.594 25.3319 872.419C25.6297 875.176 26.8829 877.714 28.9406 879.75C30.0487 880.845 32.0829 879.142 30.9749 878.048L30.9776 878.047Z" fill="#C36E9A"/>
<path d="M863.812 125.975C856.074 118.956 855.162 109.858 859.474 102.585C863.785 95.311 874.41 89.9559 886.652 88.2966C899.562 86.5474 913.369 88.311 925.538 92.8578C937.886 97.4711 948.388 104.735 955.403 112.791C958.684 116.559 961.291 121.12 960.27 125.259C959.319 129.121 954.235 131.364 948.273 131.12C942.005 130.862 935.784 128.789 930.251 126.67C924.646 124.523 919.149 122.175 914.001 119.54C904.598 114.727 895.187 108.117 894.963 100.173C894.716 91.5286 905.207 85.6853 916.175 82.695C928.164 79.4289 942.302 78.9272 955.708 80.1035C969.519 81.3144 983.18 84.4605 995.56 89.282C1001.74 91.6908 1007.58 94.5535 1012.9 97.7637C1018.22 100.974 1023.09 104.487 1024.98 108.849C1025.82 110.773 1025.96 112.828 1024.48 114.486C1023.01 116.143 1020.58 116.992 1017.75 117.246C1010.91 117.858 1004.65 115.088 999.632 111.933C996.816 110.162 994.205 108.239 991.596 106.342C988.939 104.41 986.336 102.441 983.864 100.408C979.056 96.4546 974.735 92.2305 971.716 87.6364C966.481 79.6691 965.732 69.8606 973.611 63.3748C981.445 56.928 995.564 56.5865 1007.83 58.7705C1021.45 61.1985 1034.33 66.7354 1044.66 73.2935C1049.98 76.6744 1054.71 80.4841 1058.69 84.5512C1062.37 88.3088 1066.01 93.1923 1062.75 97.1775C1061.43 98.8073 1059.03 99.9535 1056.01 99.8899C1052.18 99.8104 1048.54 98.0471 1045.54 96.4901C1039.73 93.4792 1034.32 90.102 1029.8 86.2557C1025.45 82.5598 1021.88 78.3613 1020.16 73.935C1018.45 69.5086 1018.44 65.2759 1020.3 61.3088C1022.03 57.6022 1025.51 54.1872 1030.74 52.3505C1035.53 50.6673 1041.43 50.2614 1047.07 51.0998C1052.37 51.8877 1057.27 53.8858 1060.43 56.9396C1061.58 58.0604 1063.9 56.9031 1062.75 55.7889C1055.29 48.5567 1039.51 46.9111 1029.28 50.5035C1017.19 54.7484 1013.75 65.0865 1017.08 73.9319C1020.75 83.6909 1031.98 91.947 1044.07 98.1638C1047.38 99.8692 1051.29 101.604 1055.44 101.854C1059.08 102.074 1062.25 101.149 1064.37 99.3837C1068.93 95.5867 1066.99 90.2475 1063.37 85.9596C1055.75 76.9352 1043.76 69.059 1030.49 63.5281C1018.13 58.3764 1003.3 54.5252 989.27 55.7204C982.61 56.2878 976.534 58.1209 972.134 61.2669C967.734 64.4129 965.382 68.7779 964.818 73.2097C964.254 77.6415 965.488 82.6002 968.174 87.0959C971.125 92.0311 975.626 96.6106 980.665 100.843C983.249 103.012 985.987 105.104 988.795 107.154C991.603 109.204 994.393 111.227 997.377 113.143C1002.91 116.695 1009.8 119.671 1017.42 119.313C1020.67 119.16 1023.67 118.342 1025.81 116.837C1027.95 115.332 1028.89 113.086 1028.61 110.859C1028.03 106.144 1023.01 101.629 1017.85 98.2571C1006.92 91.1056 993.64 85.5737 979.463 82.0597C965.231 78.5314 950.114 76.9703 935.566 77.7439C921.736 78.4814 907.622 81.3755 898.641 88.1098C894.484 91.2274 891.828 95.2609 891.887 99.6458C891.945 104.031 894.201 107.844 897.904 111.45C901.607 115.056 906.8 118.273 912.132 121.01C917.464 123.746 923.484 126.305 929.461 128.578C935.439 130.851 942.368 133.021 949.236 133.131C955.872 133.236 961.596 130.659 963.064 126.463C964.614 122.038 962.205 117.047 958.817 112.881C955.228 108.469 950.462 104.314 945.151 100.666C934.598 93.4155 921.013 87.8425 906.319 86.1635C892.454 84.5797 877.889 86.3455 867.532 91.8314C857.379 97.2105 852.404 106.078 854.177 115.068C855.017 119.322 857.487 123.506 861.475 127.123C862.686 128.222 865.008 127.067 863.8 125.972L863.812 125.975Z" fill="#C36E9A"/>
<path d="M1011.67 412.03C1026.43 408.994 1040.13 402.858 1051.62 394.583C1063.1 386.309 1072.34 375.856 1078.23 364.191C1084.27 352.24 1086.5 339.122 1084.96 326.231C1083.4 313.187 1078.2 300.444 1069.73 289.384C1065.5 283.856 1060.46 278.734 1054.71 274.259C1048.41 269.364 1041.11 265.018 1032.74 263.033C1025.3 261.271 1017.23 261.698 1010.39 264.817C1003.55 267.936 999.249 273.386 999.01 279.776C998.758 286.531 1003.08 292.813 1008.14 297.828C1013.52 303.17 1020.28 307.356 1027.23 311.173C1040.89 318.674 1055.97 324.376 1071.67 328.185C1087.36 331.995 1103.79 333.931 1120.17 333.899C1136.54 333.866 1152.72 331.893 1168.27 327.899C1172.08 326.919 1175.85 325.813 1179.57 324.591C1180.26 324.362 1180.75 323.817 1180.53 323.17C1180.35 322.618 1179.53 322.132 1178.83 322.364C1164.09 327.21 1148.48 330.158 1132.69 331.175C1116.88 332.191 1100.9 331.337 1085.38 328.65C1069.86 325.963 1054.79 321.481 1040.82 315.232C1033.79 312.085 1027.03 308.5 1020.66 304.491C1014.28 300.483 1008.44 295.534 1004.76 289.604C1001.35 284.11 1000.43 277.547 1004.64 272.154C1008.37 267.379 1015.3 264.748 1021.96 264.332C1030.12 263.824 1037.97 266.601 1044.58 270.371C1051.19 274.141 1056.75 278.801 1061.64 283.898C1071.14 293.785 1077.61 305.656 1080.67 318.046C1083.74 330.438 1083.31 343.449 1078.99 355.599C1074.83 367.287 1067.18 378.043 1057.18 386.919C1047.19 395.791 1034.82 402.879 1021.13 407.164C1017.8 408.209 1014.39 409.086 1010.92 409.798C1009.19 410.154 1009.93 412.383 1011.66 412.025L1011.67 412.03Z" fill="#C36E9A"/>
<path d="M293.765 34.512C309.047 44.6666 325.679 52.6982 342.365 60.1768C358.5 67.4096 374.818 74.1859 390.651 82.226C405.595 89.8146 420.242 98.5436 432.745 109.249C443.559 118.508 452.188 129.08 457.295 140.267C461.97 150.513 463.596 161.213 459.949 169.71C458.152 173.894 455.28 177.481 450.508 179.47C446.466 181.153 440.66 182.043 435.166 179.398C429.525 176.682 426.916 171.796 426.61 167.461C426.273 162.702 428.155 158.603 430.318 154.866C435.065 146.661 442.005 139.744 450.547 134.31C459.09 128.874 469.282 124.916 480.518 122.683C491.798 120.441 504.157 119.871 517.012 121.238C520.145 121.571 523.303 122.02 526.478 122.576C528.183 122.874 527.77 120.725 526.065 120.427C512.587 118.071 499.412 117.731 487.268 119.251C475.105 120.774 463.933 124.116 454.36 129.103C444.786 134.093 436.786 140.667 430.956 148.679C428.182 152.494 425.631 156.617 424.485 161.278C423.466 165.425 423.549 170.444 426.976 175.134C430.425 179.855 436.575 182.884 442.287 183.184C448.329 183.502 453.577 181.537 457.154 178.549C460.73 175.561 462.968 170.92 463.964 166.285C464.982 161.544 464.747 156.327 463.533 151.046C461.034 140.174 454.537 128.843 445.54 118.832C434.866 106.958 420.795 96.8946 406.246 88.4624C390.722 79.466 374.357 72.1657 358.041 64.9954C340.642 57.3492 323.099 49.7371 306.534 40.1484C302.525 37.8286 298.587 35.3931 294.745 32.8383C293.229 31.8297 292.267 33.5115 293.772 34.5115L293.765 34.512Z" fill="#C36E9A"/>
<path d="M679.251 69.26C674.417 68.5357 669.526 69.368 665.168 71.2181C660.763 73.0878 656.968 75.9285 653.987 79.2345C651.187 82.3404 649.12 85.9239 647.793 89.662C646.464 93.4063 645.87 97.3507 646.023 101.258C646.175 105.139 647.054 109.014 648.699 112.641C650.34 116.255 652.71 119.62 655.791 122.486C658.717 125.209 662.256 127.463 666.109 129.16C669.962 130.856 674.142 132.025 678.43 132.591C682.744 133.161 687.139 133.147 691.435 132.475C695.731 131.802 699.785 130.48 703.417 128.507C707.048 126.534 710.113 124.014 712.646 121.107C715.178 118.2 717.073 114.97 718.327 111.55C719.575 108.15 720.163 104.551 719.96 100.991C719.758 97.4305 718.741 93.6948 716.8 90.4281C714.755 86.9895 711.373 83.6982 706.764 82.8217C701.72 81.8617 696.581 84.0346 693.37 87.2743C691.666 88.993 690.406 90.967 689.411 93.0405C688.489 94.963 687.74 96.975 687.342 99.0264C686.944 101.078 686.869 103.008 687.446 104.94C688.024 106.872 689.255 108.503 691.118 109.638C694.673 111.805 699.639 111.338 703.33 109.69C707.685 107.744 710.264 103.95 711.957 100.173C712.817 98.2542 713.477 96.2778 714.125 94.3025C714.376 93.5401 712.979 93.2148 712.73 93.9759C711.45 97.8798 710.11 101.919 707.207 105.214C705.926 106.668 704.339 107.881 702.426 108.706C700.659 109.469 698.671 109.896 696.69 109.869C694.832 109.843 692.933 109.38 691.486 108.337C689.87 107.173 688.98 105.533 688.639 103.781C688.299 102.029 688.522 100.075 688.978 98.2923C689.484 96.3134 690.257 94.3516 691.246 92.5089C693.238 88.7941 696.49 85.3764 701.277 84.1978C703.48 83.6552 705.788 83.6982 707.931 84.4114C709.906 85.0682 711.58 86.2738 712.937 87.634C715.659 90.363 717.231 93.8765 718.012 97.3556C718.753 100.659 718.721 104.131 718.023 107.441C717.325 110.75 715.944 114.075 713.985 117.069C712.026 120.063 709.499 122.773 706.466 125.034C703.428 127.299 699.88 129.052 696.059 130.175C692.156 131.322 688.033 131.839 683.908 131.776C679.742 131.712 675.605 131.059 671.679 129.882C667.822 128.727 664.147 127.042 660.941 124.884C657.598 122.634 654.775 119.886 652.62 116.761C650.408 113.552 648.918 110.011 648.119 106.36C647.324 102.725 647.23 98.9601 647.823 95.2981C648.417 91.6361 649.71 87.9814 651.698 84.6557C653.686 81.3301 656.593 78.056 660.106 75.5357C663.624 73.0104 667.859 71.1027 672.43 70.441C674.55 70.1341 676.749 70.1279 678.868 70.4459C679.253 70.5036 679.648 70.3575 679.758 70.0174C679.854 69.7204 679.639 69.3202 679.253 69.2625L679.251 69.26Z" fill="#C36E9A"/>
<path d="M3.08558 392.776C7.50063 415.029 8.56323 439.259 20.7501 458.999C29.8861 473.795 46.8311 485.051 61.6037 477.845C68.7198 474.373 74.1615 466.982 74.7497 457.814C74.7933 457.127 73.9825 456.59 73.5053 456.937C64.3322 463.61 57.4281 473.778 53.9201 485.685C50.1072 498.628 50.7032 513.383 55.3054 526.744C59.7684 539.7 68.2805 553.043 80.4656 557.156C86.4448 559.174 92.6702 559.072 98.5965 558.148C104.523 557.224 110.256 555.466 115.722 553.011C128.308 547.357 139.234 537.833 147.228 525.579C147.647 524.935 146.9 524.009 146.278 524.166C129.659 528.412 118.308 545.693 116.427 564.759C114.242 586.926 123.267 609.461 136.636 626.544C144.274 636.307 153.301 644.555 162.817 651.719C163.724 652.402 164.491 650.841 163.587 650.161C147.4 637.974 132.334 622.198 124.021 601.948C116.079 582.601 115.016 559.924 125.181 543.045C130.25 534.629 137.792 528.269 146.744 525.982L145.794 524.57C139 534.98 129.984 543.325 119.67 548.968C114.517 551.787 109.047 553.916 103.377 555.289C97.7075 556.663 91.8361 557.42 85.9387 556.589C80.0412 555.758 74.2641 552.864 69.5862 548.042C65.0186 543.333 61.43 537.395 58.7321 531.178C53.2165 518.464 51.5625 503.865 54.3586 490.75C57.1989 477.426 64.4102 465.825 74.3659 458.582L73.1216 457.705C72.6085 465.697 67.9425 472.157 61.945 475.559C55.5467 479.187 47.9799 478.88 41.0099 475.734C24.3019 468.193 15.5918 448.46 11.3477 430.02C8.48305 417.572 7.12265 404.893 4.63994 392.385C4.40507 391.202 2.85009 391.596 3.08356 392.774L3.08558 392.776Z" fill="#C36E9A"/>
<path d="M935.291 868.797C959.253 875.531 984.611 880.219 1008.79 877.094C1029.3 874.441 1048.78 865.293 1059.41 850.289C1062.02 846.606 1064.05 842.571 1065.37 838.331C1066.51 834.649 1066.44 830.456 1064.82 826.643C1063.38 823.232 1060.44 820.06 1056.04 819.652C1051.19 819.202 1047.59 822.482 1046.73 826.252C1045.7 830.784 1048.57 835.354 1051.95 839.034C1055.59 842.987 1060 846.481 1064.64 849.544C1074.32 855.924 1085.57 860.329 1097.01 863.061C1122.17 869.077 1147.68 866.732 1172.11 863.544C1175.16 863.145 1178.2 862.733 1181.24 862.322C1182.94 862.091 1182.14 859.787 1180.43 860.02C1156.94 863.207 1132.78 866.516 1108.31 862.901C1097.39 861.287 1086.46 858.248 1076.49 853.51C1071.51 851.145 1066.75 848.361 1062.42 845.121C1058.26 842 1054 838.407 1051.29 834.259C1048.98 830.714 1048.21 826.239 1051.51 823.401C1054.19 821.097 1058.49 821.731 1060.77 824.667C1063.05 827.602 1063.74 831.723 1063.28 835.088C1062.74 839.025 1060.82 842.885 1058.76 846.284C1049.89 860.952 1032.28 870.434 1013.39 873.947C991.05 878.102 966.916 874.597 944.271 868.821C941.475 868.109 938.69 867.356 935.913 866.577C934.197 866.094 933.567 868.317 935.287 868.801L935.291 868.797Z" fill="#C36E9A"/>
<path d="M283.177 683.972C296.336 662.685 311.355 642.08 330.575 624.555C349.136 607.629 371.713 593.846 398.208 586.986C423.044 580.552 451.136 579.865 476.623 588.238C502.111 596.611 523.07 614.296 536.166 635.1C550.872 658.461 555.488 685.022 554.714 710.494C554.616 713.731 554.418 716.962 554.153 720.182C554.017 721.847 557.051 722.467 557.19 720.786C559.349 694.57 556.556 667.096 543.518 642.129C532.097 620.253 512.889 600.513 487.538 589.568C462.463 578.743 433.812 577.256 407.751 582.105C380.232 587.226 356.207 599.576 336.287 615.78C315.557 632.645 299.383 653.23 285.488 674.646C283.753 677.317 282.056 680.007 280.385 682.71C279.482 684.169 282.278 685.427 283.176 683.975L283.177 683.972Z" fill="#C36E9A"/>
<path d="M315.76 685.626C326.559 671.278 339.256 657.82 354.448 646.764C369.289 635.963 386.762 627.294 406.166 623.39C424.284 619.745 444.037 620.463 462.332 625.632C480.451 630.75 496.903 640.645 507.468 654.595C519.248 670.148 523.139 688.713 523.898 706.422C523.992 708.658 524.037 710.892 524.041 713.124C524.043 714.811 527.107 714.707 527.104 713.025C527.072 694.834 524.262 675.856 513.979 659.078C509.198 651.277 502.757 644.209 494.928 638.399C487.562 632.933 479.115 628.581 470.208 625.414C451.846 618.883 431.571 617.03 412.617 619.61C392.533 622.345 374.1 630.192 358.408 640.538C342.2 651.226 328.632 664.559 317.114 679.001C315.704 680.769 314.322 682.555 312.966 684.358C312.524 684.942 313.027 685.828 313.712 686.146C314.535 686.528 315.324 686.2 315.757 685.623L315.76 685.626Z" fill="#C36E9A"/>
<path d="M355.78 690.171C359.73 679.702 368.332 671.332 378.853 665.391C389.922 659.143 403.027 655.366 416.491 654.152C430.683 652.876 445.717 654.413 459.048 660.052C465.154 662.635 470.783 666.013 475.546 670.25C479.873 674.096 483.505 678.628 486.144 683.415C491.347 692.851 493.111 703.801 489.089 713.187C488.587 714.364 487.996 715.507 487.336 716.617C486.459 718.09 489.255 719.35 490.128 717.882C495.803 708.343 495.425 696.741 490.868 686.375C486.136 675.609 477.167 666.295 465.616 660.232C452.376 653.284 436.761 650.637 421.869 651.161C406.977 651.686 393.518 654.987 381.362 660.893C369.929 666.448 359.968 674.59 354.668 685.051C354.033 686.308 353.47 687.595 352.976 688.904C352.728 689.566 352.9 690.32 353.722 690.691C354.4 690.997 355.515 690.835 355.768 690.169L355.78 690.171Z" fill="#C36E9A"/>
<path d="M387.358 698.442C388.738 697.365 390.118 696.286 391.507 695.219C392.197 694.69 392.889 694.164 393.583 693.644C393.905 693.402 394.231 693.16 394.557 692.919C394.654 692.847 394.753 692.774 394.85 692.703C394.842 692.709 395.164 692.472 394.998 692.593C394.832 692.715 395.156 692.478 395.149 692.485C395.263 692.401 395.378 692.317 395.492 692.233C398.32 690.179 401.234 688.209 404.3 686.415C405.818 685.529 407.372 684.686 408.968 683.901C409.748 683.518 410.535 683.149 411.335 682.794C411.754 682.608 412.175 682.428 412.602 682.252C412.795 682.171 412.99 682.092 413.183 682.013C412.929 682.115 413.135 682.033 413.186 682.014C413.343 681.952 413.498 681.889 413.655 681.83C416.904 680.577 420.326 679.624 423.87 679.042C424.076 679.009 424.281 678.978 424.487 678.944C424.9 678.88 424.175 678.986 424.594 678.928C424.678 678.918 424.76 678.905 424.841 678.894C425.318 678.829 425.793 678.772 426.274 678.721C427.167 678.627 428.065 678.555 428.967 678.511C430.757 678.42 432.564 678.43 434.367 678.555C434.467 678.561 435.102 678.605 434.703 678.579C434.933 678.595 435.162 678.62 435.391 678.644C435.867 678.693 436.345 678.751 436.821 678.817C437.688 678.936 438.549 679.083 439.407 679.259C440.266 679.436 441.19 679.66 442.068 679.912C442.269 679.968 442.466 680.025 442.665 680.086C442.763 680.117 442.864 680.147 442.963 680.178C443.207 680.25 442.598 680.057 442.984 680.182C443.416 680.327 443.848 680.474 444.274 680.631C445.891 681.23 447.466 681.948 448.938 682.796C449.026 682.848 449.124 682.897 449.21 682.954C448.905 682.741 449.1 682.889 449.184 682.941C449.348 683.04 449.508 683.141 449.67 683.245C449.988 683.453 450.306 683.665 450.613 683.883C451.205 684.302 451.774 684.743 452.32 685.207C452.606 685.448 452.888 685.696 453.163 685.95C453.288 686.066 453.411 686.181 453.533 686.298C453.548 686.315 453.785 686.551 453.617 686.379C453.45 686.207 453.744 686.505 453.77 686.535C454.279 687.052 454.763 687.585 455.219 688.134C455.675 688.684 456.105 689.249 456.505 689.827C456.691 690.096 456.871 690.366 457.044 690.64C457.097 690.723 457.147 690.805 457.2 690.887C457.373 691.162 457.084 690.691 457.19 690.872C457.287 691.038 457.386 691.204 457.482 691.373C458.163 692.582 458.722 693.837 459.142 695.117C459.189 695.263 459.236 695.41 459.279 695.558C459.307 695.654 459.486 696.121 459.338 695.751C459.46 696.06 459.505 696.405 459.571 696.722C459.708 697.367 459.806 698.018 459.863 698.667C459.89 698.96 459.907 699.254 459.918 699.549C459.923 699.697 459.926 699.841 459.925 699.988C459.925 700.049 459.864 700.471 459.918 700.514L459.925 700.337C459.923 700.395 459.921 700.453 459.916 700.511C459.914 700.569 459.908 700.627 459.906 700.685C459.896 700.846 459.881 701.002 459.865 701.162C459.831 701.493 459.787 701.823 459.728 702.153C459.621 702.752 459.475 703.342 459.29 703.923C459.264 704.006 459.235 704.088 459.206 704.17C459.189 704.223 459.057 704.426 459.177 704.252C459.297 704.079 459.164 704.285 459.145 704.334C459.113 704.416 459.081 704.497 459.046 704.578C458.923 704.876 458.786 705.171 458.64 705.462C458.354 706.023 458.026 706.563 457.662 707.088C457.261 707.663 457.687 708.582 458.408 708.875C459.235 709.213 460.025 708.968 460.454 708.352C463.703 703.706 463.615 697.753 461.319 692.523C458.945 687.117 454.315 682.366 448.374 679.512C441.582 676.249 433.66 675.32 426.27 676.061C422.511 676.437 418.833 677.197 415.341 678.325C411.703 679.501 408.243 681.041 404.977 682.794C398.484 686.275 392.718 690.612 387.078 694.999C386.379 695.542 385.684 696.086 384.985 696.631C384.409 697.082 384.565 698.059 385.179 698.493C385.899 699.002 386.731 698.927 387.348 698.448L387.358 698.442Z" fill="#C36E9A"/>
<path d="M297.524 799.849C294.961 800.209 291.484 802.88 289.187 806.254L288.343 807.514L286.237 806.858C283.474 806.008 281.753 806.337 280.262 808.043C276.222 812.771 277.96 825.5 283.58 832.424C285.584 834.915 285.955 834.865 289.471 831.928C295.662 826.759 298.958 823.083 301.85 818.217C307.551 808.501 305.295 798.754 297.524 799.849ZM301.014 803.491C302.285 804.696 302.641 807.538 301.965 810.792C300.799 816.124 296.399 822.214 289.087 828.641C287.163 830.339 285.466 831.667 285.283 831.613C284.517 831.389 281.984 825.291 281.394 822.301C279.523 812.865 281.901 806.777 286.209 810.063C286.791 810.511 286.991 811.046 286.837 812.112C286.293 816.674 287.476 820.75 289.519 821.349C290.833 821.734 292.026 820.774 292.583 818.874C293.114 816.927 292.745 814.399 291.473 811.844L290.432 809.714L291.326 808.151C293.526 804.431 297.212 801.861 299.496 802.451C299.861 802.558 300.552 803.038 301.014 803.491Z" fill="#C36E9A"/>
<path d="M696.553 753.841V760.682L692.984 758.897C691.021 757.946 689.176 757.113 688.82 757.113C687.451 757.113 688.403 758.957 690.961 761.217C692.805 762.824 693.46 763.716 692.924 763.894C692.448 764.073 688.939 765.025 685.012 765.976C677.696 767.761 676.208 768.534 677.339 769.665C677.755 770.081 680.61 769.902 686.975 768.951C691.972 768.237 696.196 767.82 696.374 767.999C696.553 768.237 695.542 770.319 694.173 772.698C692.746 775.078 691.556 777.219 691.437 777.398C691.318 777.636 691.615 778.112 692.032 778.469C692.746 779.063 693.341 778.766 695.244 777.1C696.553 775.911 697.862 774.959 698.159 774.959C698.456 774.959 699.051 776.743 699.527 778.944C700.538 784.06 701.252 785.667 702.561 785.667C704.167 785.667 704.465 783.822 703.989 776.981C703.751 773.531 703.751 770.795 704.048 770.795C704.346 770.795 706.725 771.747 709.343 772.877C714.518 775.137 716.184 775.435 716.184 774.126C716.184 772.936 715.232 772.103 710.651 768.951C708.45 767.523 706.666 766.155 706.666 765.976C706.666 765.798 709.699 764.787 713.388 763.716C719.991 761.812 722.727 760.563 722.727 759.492C722.727 758.6 718.979 758.778 713.031 759.849C710.175 760.385 707.617 760.682 707.439 760.444C707.261 760.266 707.677 758.719 708.391 757.053C711.068 750.569 709.402 749.974 705.238 755.983C703.691 758.303 702.145 759.968 701.907 759.671C701.669 759.433 701.014 757.053 700.42 754.436C699.23 748.844 698.456 747 697.326 747C696.731 747 696.553 748.547 696.553 753.841Z" fill="#C36E9A"/>
<path d="M158.825 333.836C158.825 336.071 158.825 338.307 158.825 340.545C158.825 341.158 159.384 341.744 160.041 341.716C160.698 341.688 161.258 341.201 161.258 340.545C161.258 338.309 161.258 336.074 161.258 333.836C161.258 333.222 160.698 332.636 160.041 332.664C159.384 332.692 158.825 333.18 158.825 333.836Z" fill="#C36E9A"/>
<path d="M172.676 333.173C172.914 335.856 173.153 338.539 173.391 341.22C173.445 341.829 173.912 342.422 174.608 342.391C175.221 342.365 175.883 341.873 175.825 341.22C175.586 338.537 175.348 335.853 175.109 333.173C175.056 332.564 174.588 331.971 173.892 332.001C173.279 332.027 172.617 332.519 172.676 333.173Z" fill="#C36E9A"/>
<path d="M158.343 355.46C160.414 357.834 163.456 359.153 166.602 359.544C169.666 359.926 172.914 359.336 175.591 357.841C177.168 356.962 178.509 355.757 179.538 354.312C179.898 353.805 179.655 352.99 179.103 352.709C178.484 352.395 177.823 352.587 177.438 353.128C177.358 353.243 177.173 353.409 177.132 353.538C177.132 353.538 177.292 353.348 177.207 353.442C177.183 353.47 177.161 353.498 177.136 353.527C177.073 353.602 177.01 353.674 176.947 353.747C176.713 354.009 176.467 354.258 176.209 354.497C175.951 354.736 175.693 354.935 175.428 355.146C175.328 355.225 175.533 355.068 175.528 355.071C175.494 355.083 175.443 355.132 175.411 355.155C175.353 355.197 175.292 355.24 175.231 355.279C175.08 355.382 174.927 355.481 174.774 355.575C174.472 355.76 174.163 355.928 173.846 356.088C173.705 356.158 173.559 356.226 173.416 356.292C173.338 356.327 173.26 356.362 173.18 356.395C173.146 356.409 173.112 356.423 173.077 356.437C172.939 356.498 173.333 356.339 173.129 356.416C172.481 356.66 171.824 356.868 171.145 357.018C170.805 357.093 170.464 357.156 170.118 357.206C170.072 357.213 170.019 357.215 169.97 357.227C169.96 357.227 170.245 357.196 170.109 357.208C170.021 357.217 169.936 357.229 169.848 357.236C169.663 357.255 169.476 357.271 169.289 357.283C168.593 357.327 167.892 357.32 167.196 357.262C167.023 357.248 166.85 357.224 166.675 357.208C166.539 357.196 166.823 357.229 166.814 357.227C166.768 357.215 166.712 357.213 166.665 357.206C166.568 357.191 166.468 357.175 166.371 357.159C166.03 357.1 165.689 357.03 165.354 356.948C165.018 356.866 164.687 356.767 164.361 356.66C164.198 356.606 164.037 356.547 163.877 356.486C163.843 356.472 163.808 356.458 163.774 356.446C163.65 356.404 163.901 356.5 163.894 356.496C163.808 356.451 163.711 356.421 163.624 356.381C162.908 356.067 162.227 355.685 161.596 355.232C161.567 355.211 161.538 355.188 161.509 355.169C161.385 355.085 161.747 355.357 161.55 355.2C161.475 355.139 161.397 355.08 161.322 355.019C161.18 354.904 161.042 354.785 160.908 354.663C160.609 354.391 160.326 354.103 160.063 353.801C159.652 353.33 158.762 353.363 158.343 353.801C157.866 354.302 157.905 354.956 158.343 355.457V355.46Z" fill="#C36E9A"/>
<path d="M347.559 316.043C349.172 316.847 350.749 317.697 352.292 318.592C353.057 319.037 353.813 319.491 354.558 319.958C354.937 320.194 355.314 320.434 355.688 320.678C355.853 320.785 355.723 320.702 355.69 320.678C355.741 320.711 355.789 320.742 355.839 320.776C355.914 320.824 355.988 320.874 356.063 320.923C356.26 321.054 356.459 321.186 356.654 321.318C359.582 323.288 362.347 325.429 364.924 327.72C366.374 329.011 367.766 330.349 369.093 331.73C369.455 332.106 370.27 332.071 370.643 331.73C371.079 331.329 371.028 330.827 370.643 330.425C368.265 327.951 365.684 325.618 362.921 323.445C360.125 321.248 357.143 319.216 354.016 317.362C352.279 316.332 350.491 315.361 348.663 314.448C348.17 314.202 347.441 314.341 347.165 314.778C346.889 315.216 347.031 315.779 347.557 316.041L347.559 316.043Z" fill="#C36E9A"/>
<path d="M371.922 331.078C371.775 327.875 371.944 324.663 372.428 321.484C372.435 321.442 372.442 321.399 372.448 321.357C372.448 321.346 372.472 321.205 372.455 321.311C372.437 321.425 372.466 321.248 372.47 321.222C372.477 321.18 372.483 321.137 372.492 321.095C372.527 320.882 372.564 320.672 372.601 320.46C372.672 320.065 372.748 319.671 372.827 319.278C372.987 318.492 373.167 317.709 373.366 316.928C373.765 315.368 374.238 313.823 374.788 312.297C375.41 310.565 376.131 308.859 376.944 307.185C377.161 306.736 376.708 306.151 376.18 306.05C375.542 305.928 375.064 306.214 374.832 306.694C373.386 309.673 372.233 312.753 371.396 315.895C370.544 319.086 370.005 322.343 369.788 325.608C369.668 327.428 369.65 329.254 369.733 331.076C369.755 331.558 370.222 332.021 370.829 331.999C371.403 331.977 371.949 331.593 371.924 331.076L371.922 331.078Z" fill="#C36E9A"/>
<path d="M349.207 315.247C349.13 311.523 349.334 307.796 349.816 304.095C349.877 303.628 349.943 303.163 350.011 302.698C350.029 302.581 350.046 302.465 350.064 302.349C350.072 302.292 350.081 302.232 350.09 302.175C350.094 302.144 350.118 301.994 350.092 302.159C350.129 301.926 350.169 301.693 350.208 301.461C350.366 300.532 350.541 299.606 350.736 298.681C351.12 296.848 351.573 295.024 352.093 293.215C352.68 291.177 353.353 289.159 354.111 287.162C354.286 286.702 353.907 286.133 353.346 286.026C352.748 285.912 352.185 286.178 351.998 286.671C350.642 290.246 349.557 293.892 348.753 297.584C347.949 301.276 347.399 305.116 347.154 308.915C347.018 311.023 346.972 313.135 347.016 315.245C347.027 315.727 347.513 316.19 348.111 316.168C348.71 316.146 349.218 315.762 349.207 315.245V315.247Z" fill="#C36E9A"/>
<path d="M376.491 304.662C373.912 302.28 371.335 299.899 368.756 297.518C366.177 295.136 363.6 292.755 361.021 290.374C359.573 289.035 358.125 287.697 356.676 286.359C356.289 286.001 355.515 286.002 355.127 286.359C354.711 286.741 354.713 287.282 355.127 287.664C357.706 290.045 360.283 292.427 362.862 294.808C365.441 297.189 368.018 299.571 370.597 301.952C372.045 303.29 373.493 304.629 374.942 305.967C375.329 306.325 376.103 306.323 376.491 305.967C376.907 305.585 376.905 305.044 376.491 304.662Z" fill="#C36E9A"/>
<path d="M667.003 586.106C667.664 587.213 668.441 588.258 669.352 589.161C669.805 589.614 670.283 590.039 670.795 590.418C671.307 590.795 671.843 591.133 672.404 591.423C672.877 591.671 673.371 591.867 673.872 592.041L673.925 592.059C674.46 592.246 674.745 592.837 674.56 593.378C674.466 593.655 674.265 593.866 674.022 593.981C673.19 594.372 672.349 594.716 671.544 595.067C670.842 595.374 670.168 595.677 669.543 596.023C668.916 596.366 668.344 596.763 667.811 597.217C667.678 597.33 667.546 597.445 667.421 597.57L667.23 597.752C667.168 597.812 667.126 597.87 667.074 597.927C666.974 598.044 666.868 598.149 666.774 598.294C666.679 598.434 666.577 598.559 666.486 598.709L666.214 599.159C666.125 599.311 666.044 599.475 665.96 599.633L665.833 599.871L665.717 600.12L665.483 600.617C664.89 601.971 664.4 603.401 663.988 604.851C663.79 605.578 663.598 606.308 663.447 607.039C663.296 607.767 663.16 608.503 663.094 609.199C663.029 609.879 662.431 610.378 661.759 610.312C661.247 610.262 660.839 609.899 660.703 609.427L660.699 609.412C660.445 608.523 660.285 607.679 660.128 606.841L659.689 604.362C659.449 603.019 659.193 601.694 658.838 600.458C658.657 599.846 658.444 599.259 658.197 598.752L658.001 598.401C657.923 598.281 657.837 598.158 657.756 598.037C657.581 597.798 657.399 597.56 657.195 597.333C656.795 596.878 656.346 596.446 655.865 596.041C655.381 595.641 654.867 595.265 654.333 594.916C653.264 594.219 652.109 593.629 650.926 593.161C650.262 592.899 649.933 592.14 650.194 591.467C650.327 591.121 650.589 590.865 650.903 590.734L650.915 590.729C651.849 590.342 652.782 589.953 653.652 589.496C654.539 589.056 655.353 588.541 656.103 587.969L656.653 587.526L657.156 587.042C657.333 586.888 657.476 586.705 657.63 586.531C657.777 586.352 657.945 586.19 658.072 585.991L658.478 585.422C658.606 585.225 658.718 585.015 658.84 584.815L659.019 584.51C659.075 584.404 659.123 584.294 659.175 584.187L659.484 583.539C660.014 582.3 660.477 580.968 660.873 579.623C660.96 579.298 661.054 579.003 661.155 578.737C661.205 578.605 661.257 578.478 661.31 578.359C661.325 578.323 661.333 578.314 661.344 578.298C661.354 578.283 661.365 578.268 661.377 578.255C661.399 578.227 661.424 578.201 661.451 578.175C661.558 578.07 661.705 577.962 661.848 577.811C661.992 577.662 662.127 577.476 662.234 577.281C662.545 576.702 662.587 576.356 662.786 576.581C662.835 576.638 662.893 576.735 662.958 576.886C663.023 577.035 663.092 577.243 663.142 577.509C663.193 577.773 663.217 578.091 663.206 578.424C663.202 578.506 663.197 578.595 663.193 578.672C663.188 578.728 663.185 578.785 663.18 578.844C663.17 578.962 663.157 579.084 663.141 579.21C663.102 579.53 663.055 579.854 663.003 580.184C662.948 580.514 662.864 580.845 662.788 581.178C662.647 581.845 662.409 582.508 662.195 583.147C662.083 583.436 661.96 583.721 661.843 584.008L661.667 584.438L661.459 584.858C661.317 585.137 661.187 585.42 661.033 585.693L660.546 586.501C659.854 587.557 659.016 588.527 658.069 589.35L657.34 589.939C657.092 590.126 656.834 590.293 656.58 590.472C656.329 590.655 656.065 590.805 655.802 590.962C655.54 591.118 655.281 591.283 655.012 591.416L654.213 591.839L653.406 592.226L653.003 592.418L652.598 592.597L651.786 592.956L651.776 590.919C653.013 591.377 654.202 591.933 655.345 592.595C656.089 593.027 656.831 593.507 657.526 594.065C658.221 594.621 658.867 595.256 659.395 595.974C659.567 596.223 659.747 596.461 659.902 596.725C659.982 596.858 660.066 596.974 660.141 597.122L660.362 597.552C660.443 597.696 660.487 597.835 660.55 597.978C660.607 598.119 660.672 598.262 660.72 598.401C660.811 598.68 660.921 598.962 660.996 599.237C661.326 600.346 661.55 601.435 661.756 602.514C661.958 603.593 662.133 604.664 662.313 605.717C662.494 606.767 662.676 607.815 662.925 608.761L660.782 608.951C660.879 608.089 661.049 607.288 661.241 606.491C661.472 605.54 661.739 604.608 662.036 603.682C662.331 602.755 662.653 601.837 663.026 600.93C663.398 600.023 663.797 599.123 664.309 598.245C664.566 597.807 664.842 597.373 665.174 596.95C665.214 596.897 665.252 596.843 665.297 596.791L665.438 596.635L665.723 596.326C665.819 596.223 665.911 596.149 666.007 596.061C666.102 595.976 666.193 595.887 666.292 595.807C666.808 595.359 667.374 594.96 667.959 594.611C668.543 594.262 669.146 593.968 669.742 593.706C670.938 593.184 672.091 592.758 673.19 592.235L673.318 593.886C672.248 593.538 671.234 593.045 670.298 592.445C669.366 591.836 668.514 591.123 667.742 590.339C666.974 589.55 666.288 588.687 665.681 587.776C665.075 586.865 664.563 585.88 664.132 584.886C663.583 583.608 663.202 582.319 662.956 581.068C662.707 579.817 662.593 578.6 662.592 577.445C662.593 577.011 662.686 576.748 662.82 576.676L662.673 577.053C662.637 577.086 662.583 577.116 662.53 577.129C662.477 577.142 662.426 577.142 662.391 577.138C662.318 577.13 662.29 577.12 662.284 577.13C662.281 577.138 662.3 577.17 662.381 577.201C662.421 577.216 662.48 577.229 662.548 577.222C662.616 577.217 662.69 577.193 662.745 577.158L662.943 576.651C663.118 576.671 663.324 576.948 663.499 577.485C664.022 579.092 664.563 580.755 665.195 582.337C665.71 583.636 666.248 584.95 666.962 586.108C666.974 586.104 666.985 586.101 667 586.098L667.003 586.106Z" fill="#C36E9A"/>
<path d="M695.272 602.795C695.491 603.438 695.724 604.076 695.967 604.704C696.028 604.858 696.09 605.022 696.152 605.166C696.213 605.302 696.267 605.443 696.335 605.578C696.466 605.847 696.61 606.111 696.77 606.363C697.414 607.378 698.308 608.248 699.366 608.927C700.266 609.519 701.285 609.978 702.345 610.326C702.879 610.501 703.171 611.082 702.999 611.621C702.915 611.885 702.735 612.09 702.513 612.212L702.486 612.226C702.262 612.348 702.035 612.458 701.82 612.595C700.577 613.351 699.461 614.373 698.491 615.519C697.519 616.667 696.693 617.952 696.028 619.306C695.366 620.661 694.862 622.093 694.596 623.544C694.332 624.992 694.306 626.466 694.634 627.805L692.225 628.303C691.97 626.88 691.722 625.466 691.421 624.084C691.151 622.839 690.843 621.614 690.457 620.43C690.07 619.247 689.607 618.104 689.043 617.028C688.9 616.763 688.75 616.497 688.601 616.238C688.448 615.985 688.291 615.738 688.123 615.501C687.787 615.026 687.421 614.585 687.026 614.198C686.234 613.42 685.319 612.9 684.381 612.774C683.674 612.679 683.177 612.021 683.271 611.306C683.326 610.891 683.566 610.549 683.895 610.352L683.904 610.347C684.761 609.842 685.553 609.24 686.239 608.522C686.417 608.349 686.572 608.154 686.739 607.971C686.893 607.774 687.055 607.585 687.199 607.38C687.499 606.98 687.766 606.55 688.014 606.107C689.009 604.333 689.605 602.286 689.978 600.184C690.219 598.808 690.452 597.394 690.622 595.989C690.702 595.316 690.82 594.76 690.968 594.304C691.04 594.076 691.123 593.873 691.212 593.693C691.256 593.548 691.314 593.388 691.384 593.268C691.454 593.143 691.531 593.051 691.594 592.994C691.957 592.714 691.679 593.207 692.111 593.607C692.217 593.698 692.37 593.729 692.471 593.714C692.521 593.712 692.558 593.694 692.583 593.707C692.605 593.785 692.628 593.865 692.647 593.952C692.732 594.298 692.787 594.726 692.805 595.228C692.848 596.499 692.748 597.894 692.541 599.205C692.341 600.466 692.085 601.722 691.734 602.965C691.557 603.585 691.361 604.203 691.13 604.81C690.901 605.419 690.645 606.021 690.35 606.606C689.769 607.78 689.035 608.899 688.15 609.894C687.705 610.39 687.227 610.855 686.715 611.285C686.2 611.708 685.657 612.095 685.092 612.446L684.685 610.375C685.86 610.508 686.966 610.991 687.877 611.644C688.643 612.19 689.323 612.848 689.89 613.561C690.179 613.917 690.436 614.288 690.669 614.667L690.84 614.952C690.891 615.047 690.942 615.142 690.993 615.237C691.092 615.428 691.194 615.616 691.282 615.808C692.197 617.768 692.834 619.801 693.334 621.83C693.833 623.862 694.193 625.897 694.523 627.905L694.527 627.924C694.626 628.53 694.222 629.104 693.623 629.204C693.046 629.3 692.498 628.922 692.37 628.351C692.124 627.242 692.058 626.117 692.147 625.027C692.319 622.983 692.889 621.038 693.7 619.226C694.52 617.417 695.586 615.731 696.887 614.24C698.212 612.725 699.787 611.39 701.65 610.48L701.775 612.172C701.185 611.966 700.597 611.752 700.025 611.482C699.451 611.223 698.893 610.918 698.353 610.575C697.812 610.237 697.3 609.842 696.819 609.41C696.338 608.979 695.892 608.499 695.504 607.974C695.113 607.451 694.773 606.888 694.496 606.296C694.431 606.148 694.357 605.996 694.298 605.853L694.125 605.429C694.01 605.145 693.901 604.861 693.793 604.576C693.364 603.436 692.97 602.288 692.613 601.124C692.217 599.825 691.91 598.531 691.747 597.263C691.588 596 691.556 594.746 691.803 593.614C691.881 593.324 691.978 593.13 692.08 593.038L692.058 592.909C692.048 592.85 692.017 592.779 691.972 592.723C691.927 592.666 691.875 592.627 691.834 592.599C691.753 592.543 691.711 592.514 691.703 592.481C691.698 592.451 691.719 592.41 691.849 592.4C691.912 592.397 692.012 592.41 692.124 592.471C692.236 592.528 692.34 592.635 692.403 592.735L692.464 593.079C692.518 593.147 692.563 593.245 692.601 593.37C692.639 593.496 692.654 593.643 692.688 593.837C692.719 594.031 692.733 594.219 692.775 594.418C692.813 594.614 692.85 594.813 692.889 595.011C692.983 595.413 693.069 595.815 693.18 596.223C693.393 597.037 693.636 597.862 693.9 598.682C694.327 600.03 694.742 601.435 695.244 602.79C695.257 602.79 695.269 602.79 695.283 602.79L695.272 602.795Z" fill="#C36E9A"/>
<path d="M674.309 626.837C674.711 628.003 675.391 628.986 676.368 629.688C676.459 629.765 676.566 629.822 676.668 629.884L676.977 630.073C677.194 630.184 677.421 630.28 677.645 630.381L677.724 630.417C678.233 630.649 678.46 631.252 678.231 631.767C678.118 632.025 677.907 632.211 677.666 632.305C677.488 632.374 677.311 632.443 677.139 632.515C676.783 632.664 676.444 632.813 676.145 632.974C675.845 633.136 675.582 633.307 675.348 633.51C674.881 633.914 674.469 634.475 674.123 635.086C673.779 635.701 673.497 636.364 673.329 637.012C673.157 637.653 673.123 638.301 673.253 638.696L670.878 639.298C670.695 638.488 670.5 637.701 670.262 636.953C669.896 635.805 669.417 634.75 668.741 633.904C668.067 633.053 667.204 632.405 666.284 632.154C665.597 631.967 665.192 631.252 665.376 630.557C665.467 630.217 665.683 629.945 665.96 629.778L666.018 629.743L666.332 629.555L666.489 629.461L666.638 629.353L666.94 629.138L667.225 628.895L667.367 628.774L667.502 628.641L667.772 628.374L668.025 628.085L668.151 627.941C668.192 627.892 668.231 627.838 668.27 627.787C668.91 626.97 669.439 626.029 669.856 625.018C670.123 624.384 670.437 623.746 670.708 623.093C670.846 622.785 670.996 622.535 671.187 622.345C671.37 622.152 671.579 622.012 671.805 621.916C672.132 621.775 672.428 621.827 672.632 622.057C672.835 622.285 672.955 622.693 672.893 623.226C672.819 623.9 672.608 624.615 672.328 625.26C672.198 625.581 672.043 625.896 671.9 626.212L671.665 626.68L671.547 626.913L671.419 627.142C671.092 627.759 670.706 628.353 670.293 628.927C669.878 629.502 669.399 630.04 668.884 630.549C668.357 631.049 667.771 631.495 667.139 631.888L666.909 629.811C667.41 629.925 667.896 630.102 668.352 630.327C669.255 630.763 670.104 631.406 670.633 632.193C670.993 632.715 671.301 633.266 671.57 633.815C671.839 634.365 672.062 634.924 672.261 635.482C672.653 636.6 672.929 637.719 673.141 638.814L673.146 638.842C673.263 639.442 672.877 640.026 672.284 640.144C671.719 640.257 671.168 639.905 671.016 639.352C670.859 638.776 670.854 638.227 670.912 637.722C670.982 637.13 671.127 636.585 671.306 636.069C671.485 635.552 671.703 635.062 671.95 634.588C672.198 634.116 672.477 633.661 672.801 633.225C673.127 632.79 673.493 632.371 673.941 632.003C674.414 631.608 674.959 631.3 675.474 631.075C675.994 630.844 676.485 630.675 676.964 630.499L676.984 632.203C675.753 631.721 674.594 630.924 673.732 629.876C673.629 629.743 673.532 629.606 673.431 629.469L673.284 629.264C673.238 629.194 673.198 629.122 673.154 629.05L672.9 628.618L672.684 628.171L672.577 627.947L672.488 627.72L672.312 627.262L672.167 626.798C672.119 626.644 672.072 626.49 672.038 626.332C671.994 626.155 671.954 625.978 671.918 625.802C671.89 625.627 671.865 625.451 671.843 625.278C671.819 625.104 671.808 624.932 671.803 624.761C671.796 624.59 671.792 624.421 671.795 624.254C671.818 623.585 671.918 622.949 672.124 622.355C672.31 621.809 672.849 621.824 673.01 622.412C673.242 623.247 673.447 624.1 673.677 624.907C673.86 625.571 674.011 626.242 674.265 626.847C674.277 626.844 674.288 626.842 674.301 626.839L674.309 626.837Z" fill="#C36E9A"/>
<path d="M712.008 586.237C712.154 586.749 712.353 587.239 712.585 587.71C712.646 587.825 712.698 587.948 712.768 588.058L712.967 588.395C713.113 588.609 713.256 588.83 713.421 589.027C713.659 589.335 713.936 589.607 714.228 589.858L714.24 589.87C714.678 590.245 714.733 590.908 714.362 591.352C714.304 591.423 714.232 591.487 714.161 591.538C714.033 591.628 713.905 591.72 713.78 591.813C712.97 592.495 712.301 593.397 711.836 594.396C711.601 594.893 711.412 595.413 711.286 595.93C711.258 596.057 711.221 596.187 711.205 596.313C711.184 596.44 711.159 596.567 711.151 596.687L711.133 596.868V597.035L711.128 597.119C711.128 597.145 711.133 597.168 711.135 597.191C711.14 597.238 711.143 597.286 711.145 597.333L711.148 597.391C711.177 598.068 710.659 598.644 709.99 598.673C709.45 598.698 708.975 598.358 708.797 597.873C708.626 597.402 708.48 596.933 708.357 596.494C708.232 596.056 708.12 595.628 707.995 595.247C707.966 595.151 707.935 595.057 707.903 594.97C707.871 594.882 707.841 594.79 707.807 594.704C707.736 594.54 707.671 594.368 707.59 594.226C707.519 594.068 707.427 593.942 707.346 593.802C707.3 593.738 707.25 593.681 707.205 593.619L707.135 593.527L707.054 593.447C706.643 593.009 706.081 592.677 705.387 592.453C704.712 592.235 704.339 591.503 704.554 590.819C704.653 590.504 704.861 590.255 705.12 590.098L705.183 590.06L705.501 589.868C705.554 589.835 705.607 589.806 705.659 589.773L705.807 589.663C705.904 589.589 706.008 589.522 706.103 589.445L706.379 589.204C706.73 588.864 707.065 588.502 707.33 588.072C707.6 587.651 707.84 587.197 708.021 586.705C708.125 586.467 708.191 586.206 708.277 585.955L708.378 585.565L708.428 585.37L708.467 585.169C708.59 584.62 708.741 584.051 708.883 583.48C708.912 583.343 708.956 583.218 709.009 583.103C709.066 582.978 709.123 582.933 709.209 582.683C709.296 582.488 709.41 582.336 709.521 582.245C709.633 582.154 709.737 582.117 709.821 582.117C710.066 582.126 710.124 582.465 710.365 582.741C710.479 582.878 710.654 582.987 710.809 582.992C710.885 582.996 710.947 582.98 710.984 582.965L710.991 582.962C710.991 582.962 710.996 582.962 710.996 582.97L711.005 583.008C711.01 583.033 711.017 583.059 711.022 583.085C711.031 583.138 711.039 583.192 711.046 583.249C711.06 583.392 711.07 583.539 711.075 583.687C711.075 583.836 711.067 583.987 711.056 584.138C711.039 584.44 710.981 584.743 710.921 585.037C710.767 585.709 710.599 586.38 710.357 587.039C710.121 587.697 709.849 588.349 709.487 588.968C708.792 590.212 707.783 591.336 706.562 592.148C706.492 592.195 706.424 592.244 706.353 592.292L706.162 590.053C706.515 590.162 706.878 590.244 707.229 590.419C707.406 590.499 707.579 590.58 707.743 590.696C707.825 590.75 707.905 590.806 707.984 590.865C708.063 590.921 708.14 590.982 708.209 591.054C708.689 591.487 709.094 592.012 709.416 592.548C709.742 593.089 709.964 593.652 710.139 594.185C710.315 594.718 710.451 595.237 710.576 595.721C710.702 596.205 710.826 596.663 710.957 597.092L708.86 597.573C708.856 597.36 708.843 597.132 708.867 596.94C708.904 596.428 709.006 595.972 709.128 595.524L709.222 595.193L709.332 594.87C709.402 594.652 709.491 594.447 709.573 594.237C709.918 593.406 710.369 592.627 710.923 591.92C711.535 591.147 712.267 590.452 713.123 589.919L713.064 591.401C712.206 590.682 711.493 589.812 710.97 588.861L710.774 588.504L710.599 588.138L710.511 587.956L710.435 587.769L710.283 587.395C710.1 586.891 709.935 586.383 709.816 585.865C709.528 584.674 709.591 583.479 710.053 582.501C710.114 582.37 710.205 582.28 710.304 582.237C710.322 582.229 710.33 582.209 710.322 582.191C710.322 582.188 710.318 582.185 710.315 582.181L710.166 582.016C710.105 581.947 709.993 581.911 709.925 581.898C709.854 581.883 709.811 581.871 709.795 581.844C709.781 581.817 709.789 581.771 709.87 581.717C709.91 581.691 709.973 581.663 710.058 581.653C710.14 581.642 710.241 581.653 710.33 581.681L710.673 582.237C710.79 582.293 710.889 582.408 710.936 582.578C711.125 583.259 711.305 583.946 711.503 584.61C711.663 585.155 711.78 585.721 711.971 586.254C711.982 586.25 711.994 586.249 712.006 586.245L712.008 586.237Z" fill="#C36E9A"/>
<path d="M708.651 635.916C708.682 636.051 708.713 636.19 708.747 636.318C708.763 636.385 708.781 636.446 708.797 636.502C708.813 636.559 708.83 636.618 708.851 636.674C708.927 636.902 709.022 637.128 709.137 637.336C709.368 637.756 709.669 638.127 710.019 638.394C710.213 638.54 710.422 638.657 710.644 638.73L710.715 638.755C711.245 638.932 711.533 639.511 711.357 640.047C711.274 640.3 711.101 640.5 710.889 640.62C710.662 640.748 710.448 640.894 710.255 641.064C709.855 641.42 709.521 641.853 709.207 642.356C709.05 642.607 708.896 642.876 708.741 643.157L708.502 643.586C708.43 643.721 708.368 643.836 708.308 643.965C708.07 644.469 707.897 644.994 707.824 645.508C707.748 646.023 707.767 646.52 707.884 646.971L705.507 647.493C705.321 646.643 705.121 645.822 704.862 645.053C704.553 644.129 704.159 643.285 703.628 642.579C703.098 641.871 702.444 641.304 701.723 640.99C701.07 640.705 700.767 639.937 701.049 639.276C701.174 638.983 701.392 638.76 701.655 638.627L701.716 638.596L702.009 638.447L702.157 638.374L702.296 638.288L702.575 638.114L702.837 637.914L702.97 637.815L703.093 637.702L703.339 637.479L703.566 637.231C703.604 637.19 703.644 637.151 703.68 637.108L703.783 636.974C703.853 636.884 703.924 636.797 703.992 636.705L704.184 636.418C704.25 636.324 704.307 636.223 704.363 636.121C704.42 636.019 704.48 635.919 704.533 635.816C704.631 635.601 704.744 635.396 704.825 635.17C704.869 635.058 704.914 634.95 704.956 634.837L705.068 634.494C705.233 633.948 705.454 633.399 705.611 632.828C705.692 632.559 705.8 632.326 705.956 632.154C706.017 632.187 706.14 632.262 706.299 632.249C706.458 632.239 706.604 632.126 706.677 631.983C706.884 631.552 706.709 631.198 706.947 631.155C707.007 631.149 707.103 631.168 707.231 631.262C707.357 631.352 707.508 631.534 707.595 631.762C707.641 631.875 707.671 631.993 707.692 632.108C707.701 632.161 707.709 632.213 707.717 632.267C707.723 632.292 707.73 632.316 707.736 632.343C707.76 632.446 707.777 632.557 707.785 632.679C707.812 632.985 707.78 633.305 707.744 633.625C707.72 633.784 707.686 633.943 707.652 634.101C707.634 634.179 707.616 634.258 707.597 634.335C707.573 634.412 707.55 634.489 707.527 634.565C707.14 635.836 706.575 637.059 705.782 638.16C705.386 638.709 704.919 639.213 704.407 639.673C703.887 640.129 703.305 640.511 702.69 640.844L702.683 638.734C702.949 638.839 703.215 638.95 703.466 639.085C704.247 639.488 704.992 640.057 705.445 640.756C706.767 642.783 707.404 644.967 707.764 647.037L707.775 647.099C707.879 647.696 707.485 648.267 706.894 648.372C706.311 648.475 705.755 648.087 705.64 647.503C705.59 647.249 705.554 646.991 705.543 646.737C705.491 645.692 705.7 644.693 706.053 643.795C706.23 643.345 706.447 642.911 706.691 642.509C706.907 642.155 707.129 641.784 707.38 641.412C707.692 640.948 708.05 640.475 708.478 640.049C708.901 639.619 709.397 639.252 709.913 638.957L710.126 640.592C709.536 640.405 709.001 640.093 708.559 639.705C708.114 639.317 707.754 638.862 707.467 638.378C707.321 638.135 707.2 637.882 707.088 637.625C706.983 637.369 706.887 637.094 706.819 636.844C706.675 636.338 706.57 635.842 706.477 635.344C706.366 634.732 706.317 634.13 706.354 633.545C706.392 632.961 706.51 632.39 706.751 631.885C706.806 631.775 706.879 631.695 706.96 631.649L706.957 631.675C706.973 631.695 706.973 631.742 706.949 631.785C706.925 631.829 706.882 631.862 706.852 631.883C706.787 631.926 706.753 631.951 706.748 631.992C706.748 632.028 706.764 632.092 706.9 632.118C706.967 632.129 707.078 632.118 707.19 632.044C707.302 631.974 707.381 631.851 707.412 631.76L707.422 631.669C707.519 631.731 707.592 631.833 707.631 631.982C707.816 632.672 708.01 633.395 708.203 634.115C708.361 634.711 708.451 635.34 708.613 635.921C708.624 635.919 708.635 635.918 708.648 635.916H708.651Z" fill="#C36E9A"/>
<path d="M571.267 207.434C584.962 196.926 606.968 197.653 618.932 208.072C619.846 208.868 621.446 207.961 620.935 206.899C620.717 206.448 620.427 206.293 619.932 206.097C618.771 205.636 617.987 207.055 618.584 207.762C618.75 207.96 618.931 208.089 619.154 208.24C619.73 208.629 620.723 208.284 620.961 207.689C621.45 206.459 622.4 203.502 619.779 203.663C618.77 203.725 618.053 204.576 617.86 205.364C617.608 206.394 618.198 207.347 618.933 208.074C619.49 208.625 620.658 208.426 620.961 207.689C621.998 205.179 623.326 202.766 624.979 200.481C626.448 198.449 628.173 196.15 630.227 194.508C632.493 192.695 634.542 190.703 636.929 188.993C638.037 188.2 639.385 187.709 640.584 187.011C641.72 186.35 642.888 185.733 644.079 185.156C653.305 180.679 664.031 178.655 674.226 179.694C680.034 180.286 685.56 181.935 690.394 184.573C690.912 184.855 691.683 184.735 692.055 184.257C697.01 177.88 704.523 173.109 712.94 170.788C717.418 169.551 722.044 169.038 726.657 169.045C731.731 169.052 736.589 170.118 741.206 171.645C743.719 172.477 746.02 173.617 748.203 174.931C749.229 175.55 750.244 176.178 751.125 176.942C751.498 177.266 751.921 177.534 752.302 177.846C752.744 178.211 753.029 178.682 753.48 179.047C754.344 179.746 755.63 179.149 755.575 178.13C755.554 177.722 755.322 177.326 754.899 177.132C754.56 176.98 754.078 176.878 753.708 177.093L753.651 177.127C753.054 177.473 752.84 177.936 753.063 178.505C753.148 178.721 753.311 178.876 753.485 179.047C754.216 179.768 755.812 179.121 755.58 178.129C755.464 177.634 755.309 177.343 754.777 177.122C753.858 176.741 752.358 177.498 752.996 178.462C753.501 179.223 754.378 179.48 755.349 178.991C756.438 178.444 756.87 177.348 757.104 176.375C757.323 175.467 755.912 175.012 755.166 175.58C754.019 176.451 753.065 177.211 753.232 178.574C753.351 179.544 754.735 179.511 755.373 178.896C756.179 178.114 757.002 177.449 757.409 176.455C757.734 175.667 756.754 174.741 755.804 175.249C754.529 175.93 753.241 176.955 753.224 178.303C753.212 179.366 754.55 179.692 755.373 178.896C764.98 169.598 780.565 167.783 792.905 172.01C805.248 176.239 812.907 186.481 814.271 197.789C815.673 209.426 810.652 221.579 802.512 231.319C794.218 241.242 781.891 249.556 767.691 251.018C752.904 252.541 737.313 242.55 738.945 229.196C739.081 228.071 737.079 227.696 736.651 228.84C736.264 229.879 735.842 230.894 735.651 231.966C735.438 233.177 737.388 233.341 737.944 232.323C738.501 231.305 738.757 230.274 738.945 229.196C739.144 228.053 737.089 227.723 736.651 228.84C732.636 239.055 724.657 248.213 713.752 253.89C707.247 257.277 700.292 259.18 692.872 259.676C689.475 259.904 685.732 260.13 682.431 259.569C679.577 259.084 676.755 258.495 674 257.735C667.666 255.989 661.786 253.287 657.329 249.093C656.766 248.564 655.601 248.724 655.301 249.479C655.001 250.234 654.68 250.952 654.93 251.755C655.165 252.513 656.478 252.927 657.071 252.077C657.727 251.136 657.909 250.299 657.497 249.308C657.175 248.54 655.554 248.632 655.304 249.48C651.03 263.987 638.968 276.617 622.845 282.819C614.432 286.056 605.115 287.582 596.226 286.486C587.684 285.433 579.436 282.051 575.476 275.361C571.561 268.752 573.454 260.155 580.728 255.178L579.007 253.889C578.463 254.421 577.933 254.948 577.317 255.421L579.037 256.711C579.537 256.125 580.08 255.639 580.728 255.178L579.215 253.689C572.425 260.225 562.643 263.942 552.773 264.285C547.672 264.462 542.869 263.596 538.198 262.122C533.909 260.767 530.059 258.54 526.983 255.704C519.545 248.844 517.059 238.985 519.537 229.544C520.659 225.265 522.708 221.093 525.731 217.452C527.381 215.464 529.511 213.627 531.576 211.941C533.49 210.381 535.602 209.014 537.888 207.895C542.859 205.461 548.467 204.22 554.034 204.111C556.853 204.054 559.674 204.255 562.404 204.718C563.921 204.976 565.247 205.313 566.622 205.846C568.078 206.411 569.657 206.698 571.097 207.332C572.412 207.91 573.82 206.195 572.491 205.611C563.024 201.448 551.192 200.792 540.786 204.469C538.226 205.374 535.805 206.557 533.549 207.962C531.135 209.466 529.2 211.291 527.097 213.084C523.069 216.514 520.249 220.866 518.474 225.401C514.592 235.319 515.72 245.939 522.435 254.209C525.23 257.65 528.995 260.534 533.33 262.514C535.514 263.512 537.833 264.309 540.257 264.842C542.994 265.444 545.527 266.116 548.4 266.278C560.132 266.938 572.553 263.051 580.733 255.179C581.752 254.199 580.475 252.798 579.22 253.69C578.416 254.261 577.729 254.902 577.112 255.623C576.289 256.584 577.795 257.709 578.832 256.912C579.603 256.319 580.259 255.644 580.941 254.979C581.898 254.045 580.252 252.983 579.22 253.69C572.63 258.201 569.673 265.855 571.64 272.524C573.865 280.075 581.098 285.054 589.512 287.289C607.54 292.078 629.078 285.515 642.433 273.402C649.648 266.859 655.003 258.679 657.53 250.099C656.798 250.156 656.069 250.212 655.337 250.271L655.15 250.99C655.864 251.097 656.576 251.205 657.291 251.312C657.151 250.861 657.363 250.524 657.533 250.101L655.505 250.486C659.656 254.392 664.978 257.128 670.792 258.98C673.71 259.91 676.731 260.62 679.791 261.196C683.301 261.855 686.771 261.961 690.418 261.83C697.888 261.56 705.405 260.191 712.15 256.991C713.736 256.239 715.291 255.44 716.808 254.585C718.326 253.731 720.201 252.851 721.463 251.738C723.668 249.788 726.051 247.95 728.141 245.884C733.01 241.076 736.551 235.405 738.886 229.467L736.593 229.11C736.435 230.021 736.204 230.866 735.74 231.717L738.033 232.073C738.192 231.178 738.564 230.331 738.886 229.467L736.593 229.11C735.057 241.672 747.203 251.421 760.901 253.032C768.168 253.887 776.1 252.012 782.752 249.067C789.382 246.132 795.25 241.843 800.182 237.031C810.197 227.263 816.871 214.356 816.88 201.651C816.892 189.28 810.082 177.28 797.398 171.518C783.513 165.211 764.822 166.819 753.458 177.816L755.606 178.408C755.613 177.806 756.232 177.361 756.809 177.053C756.275 176.65 755.741 176.247 755.204 175.847C754.883 176.631 754.093 177.199 753.458 177.816C754.172 177.923 754.884 178.031 755.599 178.138C755.553 177.759 756.395 177.309 756.696 177.083L754.757 176.288C754.724 176.546 754.623 176.785 754.458 177.004C754.225 177.225 754.292 177.297 754.662 177.221L755.316 177.712L755.183 177.513L753.402 178.852L753.666 178.961L753.189 178.322L753.251 178.582L755.346 177.665L755.251 177.553L754.664 178.932L754.721 178.898L753.53 178.859L753.251 178.582L755.346 177.665C754.627 177.085 754.069 176.419 753.326 175.844C752.435 175.15 751.603 174.462 750.625 173.839C748.674 172.593 746.584 171.423 744.374 170.519C739.841 168.669 734.531 167.377 729.418 167.084C719.801 166.535 709.793 168.606 701.505 173.409C697.021 176.006 693.151 179.316 690.152 183.175L691.814 182.859C682.793 177.935 671.649 176.452 660.76 178C655.293 178.776 649.89 180.328 644.891 182.541C642.34 183.671 640.039 185.272 637.478 186.337C634.52 187.567 632.182 190.126 629.9 192.111C628.745 193.115 627.677 194.031 626.636 195.127C625.596 196.222 624.551 197.44 623.622 198.663C621.615 201.306 619.983 204.137 618.768 207.082L620.796 206.696C620.703 206.605 619.857 205.736 620.328 205.579L619.405 205.651C619.237 205.601 618.852 206.868 618.768 207.082L620.575 206.53L620.448 206.386L619.099 208.051L619.344 208.148L618.69 207.657L618.794 207.87L620.796 206.696C607.965 195.52 584.507 194.659 569.781 205.956C568.608 206.856 570.115 208.351 571.294 207.445L571.267 207.434Z" fill="#C36E9A"/>
</g>
<defs>
<clipPath id="clip0_3085_2879">
<rect width="1183.8" height="937.2" fill="white"/>
</clipPath>
</defs>
</svg>
