<svg width="33" height="33" viewBox="0 0 33 33" fill="none" xmlns="http://www.w3.org/2000/svg">
<circle cx="16.5" cy="16.5" r="13.75" fill="#FAE4F0"/>
<path fill-rule="evenodd" clip-rule="evenodd" d="M12.9076 9.82017C12.9076 10.6762 12.2559 11.3689 11.2366 11.3689C10.2571 11.3689 9.60528 10.6762 9.62546 9.82017C9.60528 8.92257 10.257 8.25 11.2561 8.25C12.2559 8.25 12.8881 8.92257 12.9076 9.82017ZM9.7074 22.5631V12.5924H12.8061V22.5625H9.7074V22.5631Z" fill="#C36E9A"/>
<path fill-rule="evenodd" clip-rule="evenodd" d="M15.29 15.7745C15.29 14.5308 15.249 13.4706 15.208 12.5938H17.8996L18.0426 13.9597H18.1038C18.5116 13.3275 19.5309 12.37 21.1824 12.37C23.2209 12.37 24.7501 13.7158 24.7501 16.6506V22.5645H21.6513V17.0389C21.6513 15.7537 21.2032 14.8775 20.0818 14.8775C19.2252 14.8775 18.7159 15.4687 18.5123 16.0392C18.4303 16.2434 18.39 16.5283 18.39 16.8145V22.5645H15.2912V15.7745H15.29Z" fill="#C36E9A"/>
</svg>
